<svg width="375" height="311" viewBox="0 0 375 311" fill="none" xmlns="http://www.w3.org/2000/svg">
<ellipse opacity="0.2" cx="206.152" cy="301.449" rx="167.424" ry="8.99" fill="#71ABDE"/>
<path fill-rule="evenodd" clip-rule="evenodd" d="M190.592 165.732C190.592 165.732 203.429 163.649 209.818 165.949C214.441 167.612 219.99 171.581 221.478 183.572C221.478 183.572 206.194 188.072 190.593 188.22C190.592 188.221 188.192 174.2 190.592 165.732Z" fill="#F3AE92"/>
<path opacity="0.5" fill-rule="evenodd" clip-rule="evenodd" d="M202.192 187.405C202.604 183.865 202.972 177.896 201.391 174.29C200.091 171.319 195.744 168.852 190.073 168.019C188.581 176.501 190.585 188.219 190.585 188.219C194.466 188.166 198.341 187.894 202.192 187.405H202.192Z" fill="#EB7C74"/>
<path opacity="0.2" fill-rule="evenodd" clip-rule="evenodd" d="M209.818 165.949C206.712 165.056 203.478 164.695 200.252 164.88C203.435 165.021 213.565 167.468 216.502 174.224C217.803 177.422 218.727 180.76 219.253 184.172C220.671 183.808 221.478 183.572 221.478 183.572C219.988 171.581 214.439 167.613 209.818 165.949Z" fill="white"/>
<path fill-rule="evenodd" clip-rule="evenodd" d="M95.1078 180.294C89.1438 178.47 89.4658 178.152 83.9668 176.163C78.4678 174.174 77.7547 173.963 73.0218 172.204C68.2889 170.445 51.5288 168.142 44.1048 189.926C36.4529 212.375 44.9758 219.7 49.9798 223.412C57.7478 229.175 75.7098 235.704 80.9099 237.832C80.9088 237.832 70.7207 201.017 95.1078 180.294Z" fill="#F29297"/>
<path fill-rule="evenodd" clip-rule="evenodd" d="M95.1078 180.294C89.1438 178.47 89.4658 178.152 83.9668 176.163C78.4678 174.174 77.7547 173.963 73.0218 172.204C68.2889 170.445 51.5288 168.142 44.1048 189.926C36.4529 212.375 44.9758 219.7 49.9798 223.412C57.7478 229.175 75.7098 235.704 80.9099 237.832C80.9088 237.832 70.7207 201.017 95.1078 180.294Z" fill="#F29297"/>
<path fill-rule="evenodd" clip-rule="evenodd" d="M93.8823 180.672C85.8823 178.529 75.0063 174.178 71.2232 173.233C67.4401 172.288 61.7652 172.57 58.6442 175.219C55.5232 177.868 63.1993 175.19 72.3713 178.311C81.5433 181.432 85.4053 183.297 88.4603 184.469C91.5152 185.641 93.8823 180.672 93.8823 180.672Z" fill="#F5A9A7"/>
<path opacity="0.5" fill-rule="evenodd" clip-rule="evenodd" d="M68.0789 199.85C62.6619 197.387 56.7559 194.912 53.2788 191.037C46.2218 183.172 51.7898 176.837 56.1948 173.737C51.5818 176.31 47.0889 181.17 44.1049 189.926C36.4529 212.375 44.9758 219.7 49.9789 223.412C57.7479 229.175 75.7098 235.704 80.9099 237.832C80.9099 237.832 76.5369 222.025 80.382 205.296C76.1399 203.472 72.0259 201.644 68.0789 199.85Z" fill="#EC6469"/>
<path opacity="0.5" fill-rule="evenodd" clip-rule="evenodd" d="M50.5569 178.312C47.645 181.709 45.4495 185.66 44.1019 189.927C36.45 212.376 44.9729 219.701 49.976 223.413C57.745 229.176 75.7069 235.705 80.907 237.833C79.5103 232.084 78.8053 226.188 78.8069 220.271C70.3862 216.899 62.2795 212.79 54.5811 207.993C38.2899 197.346 49.6039 179.737 50.5569 178.312Z" fill="#E73555"/>
<path fill-rule="evenodd" clip-rule="evenodd" d="M115.396 247.867C114.858 248.598 113.984 249.003 113.079 248.941C111.058 248.907 107.033 246.95 96.7276 243.702C88.4425 241.091 83.2495 240.049 81.6966 238.66C77.8276 235.2 73.0205 222.198 76.5606 205.875C79.8706 190.616 89.9106 182.515 93.3606 180.899C96.1856 179.576 99.2397 179.853 105.024 181.577C108.523 182.619 112.087 183.435 115.691 184.018C117.748 184.352 119.717 184.594 121.576 184.765C126.471 185.213 125.564 187.038 125.564 187.038C125.564 187.038 108.674 193.333 104.809 211.747C99.9406 234.936 115.396 247.867 115.396 247.867Z" fill="#16A461"/>
<path fill-rule="evenodd" clip-rule="evenodd" d="M93.882 180.673C93.7069 180.742 93.532 180.817 93.3579 180.899C91.5638 181.851 89.9139 183.054 88.458 184.47C95.8773 187.412 103.471 189.893 111.196 191.901C111.196 191.901 115.542 191.485 118.849 190.796C120.03 189.96 121.134 189.275 122.092 188.732C121.166 188.264 120.172 187.943 119.148 187.778C110.829 185.99 98.9609 182.295 93.882 180.673Z" fill="#3EC664"/>
<path fill-rule="evenodd" clip-rule="evenodd" d="M77.0506 203.919C76.8796 204.563 76.7066 205.202 76.5606 205.874C73.0205 222.197 77.8276 235.199 81.6966 238.66C83.2495 240.049 88.4435 241.092 96.7276 243.702C107.033 246.95 111.058 248.908 113.079 248.941C113.984 249.003 114.858 248.598 115.396 247.867C115.396 247.867 101.385 236.127 104.26 214.972C94.8106 211.484 85.6305 207.693 77.0506 203.919Z" fill="#16935D"/>
<path fill-rule="evenodd" clip-rule="evenodd" d="M113.079 248.94C113.985 249.002 114.859 248.597 115.396 247.866C111.33 244.052 108.217 239.338 106.306 234.101L98.4055 227.531C98.4055 227.531 87.5945 224.136 75.3545 218.82C75.6755 228.804 78.9275 236.179 81.6995 238.658C83.2524 240.047 88.4464 241.089 96.7305 243.7C107.033 246.949 111.058 248.907 113.079 248.94Z" fill="#0E7F4C"/>
<path fill-rule="evenodd" clip-rule="evenodd" d="M90.4492 211.034C93.9542 190.3 112.808 184.401 115.121 183.917C111.97 183.384 108.852 182.674 105.781 181.791H105.767C102.605 182.14 86.4101 189.491 83.4871 208.071C80.6541 226.071 87.8721 239.133 90.4141 241.804C92.2612 242.338 94.3631 242.953 96.7271 243.697C97.9022 244.068 98.9852 244.418 100.003 244.754C100.003 244.754 87.0822 230.951 90.4492 211.034Z" fill="#FFD348"/>
<path fill-rule="evenodd" clip-rule="evenodd" d="M101.916 183.163C99.6917 184.258 97.5961 185.597 95.668 187.156C98.062 188.002 100.696 188.886 103.441 189.73C105.613 188.109 107.952 186.727 110.42 185.608C107.51 184.815 104.577 183.963 101.916 183.163Z" fill="#FFE568"/>
<g style="mix-blend-mode:multiply" opacity="0.1">
<path fill-rule="evenodd" clip-rule="evenodd" d="M99.9992 244.758H100.005C100.005 244.758 87.0822 230.951 90.4492 211.035C90.5262 210.582 90.6181 210.145 90.7092 209.707C88.3484 208.746 86.0189 207.78 83.7201 206.807C83.6381 207.227 83.5551 207.648 83.4871 208.081C80.6541 226.081 87.8721 239.143 90.4141 241.814L90.4301 241.82L91.5792 242.153L92.0031 242.277L92.9962 242.569L93.5202 242.725C93.8702 242.825 94.2302 242.939 94.5942 243.049L95.0851 243.197C95.6181 243.361 96.1631 243.529 96.7261 243.706C97.3201 243.894 97.8901 244.076 98.4391 244.253C98.9882 244.43 99.4982 244.592 99.9992 244.758Z" fill="#E85D1C"/>
</g>
<g style="mix-blend-mode:multiply" opacity="0.3">
<path fill-rule="evenodd" clip-rule="evenodd" d="M98.4441 244.249C98.9711 244.418 99.4751 244.583 99.9661 244.749L100.002 244.76H100.008C95.1755 239.057 91.9156 232.191 90.551 224.842C88.3881 224.06 85.8821 223.124 83.167 222.054C84.3669 232.64 88.594 239.895 90.417 241.811H90.427L91.573 242.143H91.583L91.8881 242.232C92.3467 242.365 92.8193 242.505 93.306 242.65L93.524 242.715L94.5851 243.035H94.5951L95.0861 243.183C95.618 243.346 96.1621 243.514 96.724 243.691C97.318 243.879 97.8879 244.061 98.437 244.238L98.4441 244.249Z" fill="#E85D1C"/>
</g>
<path fill-rule="evenodd" clip-rule="evenodd" d="M295.72 161.243C295.72 161.243 292.635 160.131 281.105 164.602C269.575 169.073 202.038 192.529 125.566 187.037C125.566 187.037 109.8 184.877 100.152 207.095C90.5037 229.313 109.257 245.044 109.257 245.044C109.257 245.044 135.502 260.025 198.85 262.963C259.781 265.789 289.171 258.963 302.077 255.663C315.469 252.24 320.059 249.51 320.841 247.785C321.587 246.13 295.72 161.243 295.72 161.243Z" fill="#FFD348"/>
<g style="mix-blend-mode:multiply" opacity="0.1">
<path fill-rule="evenodd" clip-rule="evenodd" d="M174.147 230.388C150.606 230.324 123.214 222.364 98.2605 212.715C93.6195 231.915 109.251 245.045 109.251 245.045C109.251 245.045 135.497 260.026 198.844 262.964C259.775 265.79 289.166 258.964 302.072 255.664C315.463 252.241 320.054 249.511 320.836 247.786C321.025 247.367 319.498 241.573 317.115 233.17L270.246 222.194C270.246 222.194 228.339 230.536 174.147 230.388Z" fill="#E85D1C"/>
</g>
<path fill-rule="evenodd" clip-rule="evenodd" d="M295.719 161.243C295.719 161.243 292.635 160.131 281.104 164.602C269.573 169.073 202.034 192.529 125.56 187.037C125.56 187.037 112.249 185.23 102.605 202.174C166.145 223.343 239.575 207.095 263.018 199.68L296.939 188.491L302.016 182.047C298.404 170.053 295.719 161.243 295.719 161.243Z" fill="#FFDA60"/>
<path fill-rule="evenodd" clip-rule="evenodd" d="M279.846 176.1C279.846 176.1 296.899 163.048 291.187 164.308C285.475 165.568 260.515 178.041 208.373 186.486C178.852 191.245 148.795 191.68 119.148 187.776C116.26 188.633 113.562 190.032 111.197 191.899C124.265 194.982 149.264 199.678 183.513 197.386C238.436 193.714 270.11 180.244 279.846 176.1Z" fill="#FFE568"/>
<path d="M102.605 202.174C166.145 223.343 239.575 207.095 263.018 199.68" stroke="#FFEAA8" stroke-width="3"/>
<path fill-rule="evenodd" clip-rule="evenodd" d="M276.88 237.593C266.707 241.204 188.503 258.562 98.4053 227.532C100.324 234.264 104.08 240.328 109.251 245.045C109.251 245.045 135.496 260.026 198.844 262.964C259.775 265.79 289.165 258.964 302.071 255.664C315.463 252.241 320.053 249.511 320.835 247.786C321.076 247.254 318.553 238.076 315.024 225.886L276.88 237.593Z" fill="#FECB2F"/>
<g style="mix-blend-mode:multiply" opacity="0.3">
<path fill-rule="evenodd" clip-rule="evenodd" d="M320.836 247.783C320.768 246.748 320.574 245.726 320.259 244.738L298.917 243.754C274.271 254.943 168.047 269.031 98.4062 227.532C99.2664 230.734 100.59 233.794 102.336 236.613C104.215 239.748 106.545 242.589 109.251 245.045C109.251 245.045 135.496 260.026 198.844 262.964C259.775 265.79 289.165 258.964 302.071 255.664C315.464 252.238 320.054 249.507 320.836 247.783Z" fill="#E85D1C"/>
</g>
<path d="M276.88 237.593C266.707 241.204 188.503 258.562 98.4053 227.532" stroke="#FFE568" stroke-width="3"/>
<path fill-rule="evenodd" clip-rule="evenodd" d="M124.494 214.989C119.23 213.855 116.675 213.275 112.919 212.648C106.388 211.559 105.538 220.111 110.586 222.948C114.5 225.122 118.731 226.67 123.125 227.535C125.716 228.119 128.37 228.368 131.025 228.278C133.561 228.142 135.925 226.644 136.495 224.371C137.25 221.574 135.852 218.645 133.204 217.471C130.396 216.339 127.476 215.507 124.494 214.989Z" fill="#16A461"/>
<path fill-rule="evenodd" clip-rule="evenodd" d="M110.586 222.945C114.5 225.119 118.731 226.667 123.125 227.532C125.715 228.116 128.37 228.365 131.024 228.275C133.237 228.244 135.251 226.992 136.258 225.022C126.638 222.613 116.929 219.549 107.45 216.143C106.939 218.847 108.198 221.578 110.586 222.945Z" fill="#16935D"/>
<path fill-rule="evenodd" clip-rule="evenodd" d="M128.099 226.055C127.499 226.01 127.205 225.983 126.614 225.92C126.014 225.278 125.722 224.952 125.162 224.292C121.87 220.336 120.671 218.297 118.546 217.557C117.113 217.057 115.518 217.112 114.596 218.9C114.147 219.876 114.135 220.996 114.563 221.981C113.856 221.947 113.502 221.923 112.794 221.86C112.32 220.53 112.454 219.059 113.16 217.836C114.27 215.744 116.797 214.851 118.975 215.78C121.462 216.65 122.966 218.894 125.638 222.135C126.022 222.625 126.219 222.868 126.625 223.348L126.676 223.354C127.193 220.969 127.41 219.772 127.755 217.379C128.419 217.445 128.755 217.471 129.425 217.508C129.153 220.381 128.71 223.235 128.099 226.055L128.099 226.055Z" fill="#FFD348"/>
<path fill-rule="evenodd" clip-rule="evenodd" d="M295.72 161.242C292.72 162.042 283.161 171.475 276.645 180.127C270.129 188.779 263.494 196.127 263.019 199.68C262.544 203.233 267.877 215.556 270.246 222.191C272.615 228.826 275.815 236.291 276.881 237.591C277.947 238.891 292.876 242.091 298.918 243.752C304.96 245.413 318.704 248.252 320.837 247.781C322.97 247.31 343.362 225.813 353.661 211.724C361.411 201.234 368.49 190.264 374.854 178.88C375.683 177.103 375.693 173.85 371.309 173.139C366.925 172.428 347.019 169.901 331.263 167.452C316.52 165.162 299.037 160.362 295.72 161.242Z" fill="#F8E9D0"/>
<path fill-rule="evenodd" clip-rule="evenodd" d="M373.216 173.728C372.614 173.436 371.971 173.238 371.309 173.14C366.926 172.429 347.019 169.902 331.263 167.453C316.52 165.161 299.037 160.362 295.719 161.242C292.719 162.042 283.161 171.475 276.645 180.127C271.307 187.214 265.896 193.419 263.851 197.388C267.593 196.203 281.861 193.688 311.316 188.219C316.802 187.201 323.399 185.908 328.816 184.949C343.852 182.216 358.687 178.467 373.217 173.728L373.216 173.728Z" fill="#FCF1E0"/>
<path fill-rule="evenodd" clip-rule="evenodd" d="M373.216 173.728C376.367 177.743 370.443 181.777 364.033 187.283C357.623 192.789 342.965 203.396 315.793 211.725C287.673 220.346 281.538 220.346 270.248 222.19C272.617 228.825 275.817 236.29 276.883 237.59C277.949 238.89 292.878 242.09 298.92 243.751C304.962 245.412 318.706 248.251 320.839 247.78C322.972 247.309 343.364 225.812 353.663 211.723C361.413 201.233 368.491 190.263 374.854 178.879C375.343 177.983 375.444 176.926 375.135 175.954C374.825 174.981 374.132 174.177 373.216 173.728Z" fill="#F5DFCE"/>
<path fill-rule="evenodd" clip-rule="evenodd" d="M365.524 174.229C365.524 174.229 344.487 172.992 328.792 170.293C314.474 167.831 294.991 163.793 291.192 164.311C287.116 167.946 283.324 171.888 279.851 176.103C281.321 175.144 288.196 174.992 307.851 176.11C324.369 177.049 356.173 176.782 365.524 174.229Z" fill="#FFF8ED"/>
<path fill-rule="evenodd" clip-rule="evenodd" d="M372.772 182.64C363.322 198.24 332.746 228.348 298.919 243.753C304.962 245.412 318.705 248.253 320.838 247.782C322.971 247.311 343.363 225.814 353.662 211.725C362.544 199.575 369.462 188.348 372.772 182.64H372.772Z" fill="#EDC1AD"/>
<path fill-rule="evenodd" clip-rule="evenodd" d="M371.309 173.14C367.27 172.485 350.054 170.288 335.047 168.031C335.047 168.031 324.841 177.118 330.498 193.416C336.155 209.714 353.661 211.725 353.661 211.725C361.412 201.235 368.49 190.265 374.854 178.881C375.684 177.104 375.693 173.852 371.309 173.14Z" fill="#194A72"/>
<path fill-rule="evenodd" clip-rule="evenodd" d="M370.72 173.048L370.344 172.992L370.132 172.96L369.756 172.904L369.456 172.861L369.085 172.807L368.746 172.759L368.335 172.701L367.981 172.651L367.493 172.583L367.174 172.538L366.574 172.455L366.285 172.416C359.074 171.416 346.429 169.743 335.05 168.032C330.676 172.537 328.413 178.682 328.819 184.948C352.65 180.726 375.89 174.982 371.312 173.14L370.871 173.071L370.72 173.048Z" fill="#29688C"/>
<path fill-rule="evenodd" clip-rule="evenodd" d="M375.026 178.445C375.052 178.37 375.077 178.294 375.099 178.216C375.113 178.167 375.126 178.116 375.138 178.069C375.156 177.998 375.171 177.927 375.187 177.855C375.198 177.799 375.209 177.741 375.219 177.684C375.229 177.627 375.237 177.551 375.246 177.484C375.255 177.417 375.262 177.357 375.267 177.292C375.267 177.242 375.267 177.192 375.273 177.14C375.28 176.981 375.278 176.821 375.265 176.662C375.265 176.627 375.265 176.591 375.257 176.556C375.247 176.465 375.233 176.375 375.217 176.285C375.21 176.248 375.204 176.211 375.197 176.174C375.177 176.081 375.154 175.989 375.126 175.897C375.117 175.866 375.108 175.838 375.098 175.808C375.065 175.708 375.03 175.608 374.988 175.513L374.978 175.49C374.822 175.138 374.605 174.815 374.337 174.538L374.329 174.529C374.24 174.438 374.146 174.351 374.048 174.27L373.985 174.218C373.884 174.136 373.778 174.06 373.669 173.989C373.643 173.972 373.616 173.956 373.591 173.94C373.472 173.866 373.349 173.793 373.215 173.727C376.366 177.742 370.442 181.776 364.032 187.282C359.895 190.836 350.02 196.7 337.284 203.914C344.284 210.392 353.673 212.081 353.66 211.725C361.411 201.235 368.489 190.265 374.853 178.881C374.901 178.781 374.945 178.671 374.986 178.56C375.002 178.523 375.013 178.479 375.026 178.445Z" fill="#123668"/>
<path fill-rule="evenodd" clip-rule="evenodd" d="M329.921 176.604C344.392 176.559 359.546 175.862 365.521 174.23C365.521 174.23 347.734 173.183 332.668 170.916C331.49 172.674 330.565 174.589 329.921 176.604Z" fill="#3C8DAA"/>
<path fill-rule="evenodd" clip-rule="evenodd" d="M355.49 209.197C355.948 208.558 356.401 207.923 356.847 207.29L356.908 207.205C357.375 206.546 357.833 205.893 358.281 205.244L358.622 204.752C359.035 204.157 359.442 203.567 359.843 202.982C359.878 202.93 359.915 202.877 359.95 202.825C360.382 202.194 360.805 201.57 361.22 200.953C361.326 200.796 361.432 200.639 361.536 200.484C361.906 199.934 362.269 199.39 362.627 198.853L362.77 198.639C363.17 198.039 363.559 197.449 363.936 196.869L364.207 196.454C364.545 195.936 364.877 195.426 365.202 194.923C365.247 194.853 365.293 194.782 365.338 194.714C365.702 194.151 366.056 193.598 366.4 193.057L366.626 192.702C366.93 192.225 367.227 191.756 367.517 191.295L367.644 191.095C367.973 190.571 368.292 190.061 368.6 189.564C368.653 189.481 368.7 189.398 368.754 189.316C369.034 188.864 369.306 188.423 369.57 187.993C369.6 187.943 369.632 187.893 369.663 187.842C369.955 187.365 370.235 186.904 370.505 186.458L370.594 186.311C370.852 185.884 371.101 185.47 371.338 185.074L371.374 185.015C371.628 184.589 371.869 184.182 372.099 183.793L372.126 183.747C372.354 183.36 372.57 182.99 372.772 182.647C368.448 189.784 359.693 199.96 348.237 210.373C349.997 211 351.814 211.456 353.662 211.732C354.158 211.054 354.647 210.379 355.128 209.708L355.49 209.197Z" fill="#0E2D54"/>
<path fill-rule="evenodd" clip-rule="evenodd" d="M124.003 188.22C123.512 191.834 125.15 197.936 134.203 201.242C143.256 204.548 156.403 201.889 157.822 201.889C159.241 201.889 160.813 202.833 159.868 208.028C158.923 213.223 160.5 220.346 160.5 220.346C158.945 221.374 158.403 223.402 159.239 225.068C160.498 228.331 157.98 231.468 157.98 234.935C157.98 238.402 155.934 247.986 164.748 248.935C173.562 249.884 195.44 240.559 195.125 237.827C194.81 235.095 188.453 233.464 184.942 228.298C181.431 223.132 182.606 191.354 169.115 190.867C155.624 190.38 124.003 188.22 124.003 188.22Z" fill="url(#paint0_linear)"/>
<path fill-rule="evenodd" clip-rule="evenodd" d="M131.929 105.433C131.929 105.433 124.339 103.095 117.765 109.983C112.44 115.561 108.037 124.216 112.414 127.609C116.791 131.002 131.929 105.433 131.929 105.433Z" fill="#28BBE2"/>
<g style="mix-blend-mode:multiply" opacity="0.2">
<path fill-rule="evenodd" clip-rule="evenodd" d="M131.928 105.434C126.783 107.648 122.278 111.121 118.828 115.534C114.747 120.617 112.281 120.7 112.222 117.834C110.311 121.781 109.829 125.61 112.409 127.61C116.791 130.999 131.928 105.434 131.928 105.434Z" fill="#242357"/>
</g>
<path fill-rule="evenodd" clip-rule="evenodd" d="M107.088 137.474C104.945 137.151 100.561 138.286 98.1708 143.763C95.7807 149.24 94.0527 162.123 97.5057 166.64C100.959 171.157 105.357 169.996 105.357 169.996L107.088 137.474Z" fill="#28BBE2"/>
<g style="mix-blend-mode:multiply" opacity="0.2">
<path fill-rule="evenodd" clip-rule="evenodd" d="M100.476 153.776C99.5763 159.952 96.4153 159.976 95.5693 158.267C95.5884 161.717 96.1333 164.842 97.5073 166.639C100.96 171.155 105.358 169.995 105.358 169.995L107.089 137.474C107.089 137.474 102.222 141.82 100.476 153.776Z" fill="#242357"/>
</g>
<path fill-rule="evenodd" clip-rule="evenodd" d="M162.754 104.023C158.608 101.686 145.454 99.7231 135.231 103.695C125.008 107.667 109.862 127.944 104.148 144.723C98.4342 161.502 103.269 176.735 121.574 178.861C139.879 180.987 149.328 178.461 153.774 176.337C158.22 174.213 165.304 158.89 168.442 141.789C171.58 124.688 162.754 104.023 162.754 104.023Z" fill="#28BBE2"/>
<g style="mix-blend-mode:multiply" opacity="0.2">
<path fill-rule="evenodd" clip-rule="evenodd" d="M162.754 104.023C161.572 103.357 153.114 102.344 144.444 105.052C136.449 107.552 123.144 117.21 115.989 130.625C108.834 144.04 116.671 170.384 115.989 172.3C115.453 173.8 109.815 173.307 105.252 169.831C108.381 174.631 113.74 177.951 121.573 178.861C139.879 180.986 149.327 178.461 153.773 176.337C158.219 174.213 165.303 158.89 168.441 141.789C171.579 124.688 162.754 104.023 162.754 104.023Z" fill="#242357"/>
</g>
<path opacity="0.2" fill-rule="evenodd" clip-rule="evenodd" d="M103.17 138.893C100.823 140.24 98.3038 143.651 97.3877 148.284C96.4717 152.917 98.5998 152.216 99.2267 150.125C99.8537 148.034 100.71 143.231 103.086 140.544C105.021 138.353 104.111 138.354 103.17 138.893Z" fill="#F5FFFE"/>
<path opacity="0.2" fill-rule="evenodd" clip-rule="evenodd" d="M124.816 106.226C121.517 107.266 118.687 109.428 116.816 112.337C115.398 114.871 116.958 115.5 118.516 113.802C120.074 112.104 123.108 108.251 126.158 107.117C129.208 105.983 127.513 105.434 124.816 106.226Z" fill="#F5FFFE"/>
<path opacity="0.2" fill-rule="evenodd" clip-rule="evenodd" d="M145.344 102.419C146.099 102.519 143.384 103.272 139.254 105.434C134.836 107.746 128.346 113.071 125.654 115.668C122.962 118.265 121.284 115.913 128.367 109.35C133.757 104.351 141.738 101.962 145.344 102.419Z" fill="#F5FFFE"/>
<path fill-rule="evenodd" clip-rule="evenodd" d="M187.671 121.151C188.709 123.121 192.717 135.745 189.121 142.661C185.525 149.577 181.64 145.061 181.64 145.061L185.14 121.904L187.671 121.151Z" fill="#007CB6"/>
<path fill-rule="evenodd" clip-rule="evenodd" d="M187.431 125.718C187.305 124.276 187.025 122.852 186.596 121.47L185.14 121.902L181.64 145.059C182.311 145.792 183.202 146.289 184.18 146.474C183.847 145.856 183.623 145.513 183.623 145.513C183.623 145.513 188.641 137.911 187.431 125.718Z" fill="#00629E"/>
<path fill-rule="evenodd" clip-rule="evenodd" d="M189.795 141.043C187.763 139.671 185.101 139.671 183.069 141.043C181.134 142.551 180.588 147.559 180.588 147.559L182.454 159.466C183.515 160.336 184.771 160.937 186.115 161.215C187.513 161.298 188.871 160.73 189.795 159.678C190.576 159.019 192.332 159.019 192.99 157.263C193.648 155.507 193.649 153.421 194.527 152.213C195.405 151.005 198.127 149.03 196.927 145.846C195.727 142.662 195.218 141.171 195.934 138.71C196.568 136.533 197.615 134.671 196.455 133.26C195.013 131.504 192.026 132.892 190.586 135.197C190.638 137.176 190.371 139.15 189.795 141.043Z" fill="#F8C6A3"/>
<path fill-rule="evenodd" clip-rule="evenodd" d="M190.887 148.571C190.865 147.815 187.956 146.982 185.915 144.955C183.874 142.928 185.915 139.528 188.344 140.334C186.573 139.706 184.608 139.969 183.065 141.041C181.13 142.549 180.584 147.557 180.584 147.557L182.45 159.464C183.511 160.334 184.767 160.935 186.111 161.213C187.035 161.327 187.967 161.086 188.72 160.538C187.955 160.858 187.07 160.634 186.549 159.989C185.549 158.871 186.901 156.496 187.572 154.945C188.243 153.394 184.472 152.188 186.372 148.845C187.304 147.2 190.912 149.329 190.887 148.571Z" fill="#F2A37C"/>
<path fill-rule="evenodd" clip-rule="evenodd" d="M194.602 132.475C192.919 132.723 191.44 133.725 190.586 135.197C190.638 137.176 190.371 139.15 189.794 141.044C189.794 141.044 191.843 142.367 193.312 143.395C192.774 142.588 192.396 141.686 192.197 140.737C191.572 138.753 191.623 136.617 192.342 134.665C192.79 133.675 193.598 132.892 194.602 132.475V132.475Z" fill="#F2A37C"/>
<path opacity="0.3" fill-rule="evenodd" clip-rule="evenodd" d="M195.23 138.127C194.268 140.266 195.109 143.041 195.918 145.015C196.727 146.989 196.847 148.829 194.812 151.86C195.871 150.632 198.012 148.738 196.929 145.844C195.735 142.661 195.219 141.169 195.935 138.708C196.569 136.531 197.616 134.669 196.456 133.258C196.846 133.962 196.348 135.639 195.23 138.127Z" fill="white"/>
<path fill-rule="evenodd" clip-rule="evenodd" d="M178.669 115.657C178.669 115.657 184.491 114.366 185.543 124.979C186.754 137.171 181.735 144.774 181.735 144.774C181.735 144.774 187.574 153.646 184.496 164.226C182.473 171.177 148.111 177.906 121.572 172.065C121.572 172.065 122.462 148.32 130.972 132.065C135.979 122.415 143.979 114.648 153.772 109.928L162.757 109.348C162.757 109.348 166.908 114.67 170.844 116.32C174.78 117.97 178.669 115.657 178.669 115.657Z" fill="#EFF8FC"/>
<path fill-rule="evenodd" clip-rule="evenodd" d="M150.323 173.956L162.478 164.226C162.478 164.226 147.864 167.385 139.422 165.753C130.98 164.121 128.98 155.618 131.928 151.86L129.728 146.853L125.316 147.388C123.286 155.475 122.033 163.738 121.574 172.064C131.021 174.037 140.699 174.674 150.323 173.956Z" fill="#CCE4EA"/>
<path fill-rule="evenodd" clip-rule="evenodd" d="M169.112 140.917C169.112 140.917 178.276 141.217 181.736 144.774C182.241 144.061 182.647 143.284 182.943 142.462C178.878 139.676 173.692 139.097 169.112 140.917Z" fill="#CCE4EA"/>
<path fill-rule="evenodd" clip-rule="evenodd" d="M134.106 149.516C137.861 150.463 142.796 155.349 152.746 156.001C162.696 156.653 167.225 153.586 171.858 149.516C166.241 151.728 160.021 151.876 154.304 149.935C143.488 146.205 140.404 136.964 129.322 136.713C129.146 136.713 128.978 136.722 128.806 136.726C125.019 145.913 123.19 156.384 122.324 163.526L134.106 149.516Z" fill="#CCE4EA"/>
<path fill-rule="evenodd" clip-rule="evenodd" d="M173.415 127.919C173.415 127.919 173.23 135.903 166.815 138.127C166.815 138.127 176.301 138.027 176.575 132.466C176.849 126.905 173.415 127.919 173.415 127.919Z" fill="#A9CBD3"/>
<path fill-rule="evenodd" clip-rule="evenodd" d="M169.112 119.383C169.112 119.383 169.38 127.298 174.147 128.601C179.082 129.949 175.06 119.506 174.391 119.42C173.722 119.334 169.112 119.383 169.112 119.383Z" fill="#A9CBD3"/>
<path fill-rule="evenodd" clip-rule="evenodd" d="M173.151 117.818C170.676 118.918 169.515 121.865 169.309 123.823C169.103 125.781 169.123 126.164 168.635 126.057C166.927 125.818 165.34 125.034 164.111 123.823C161.848 121.789 167.204 113.803 167.204 113.803H168.191C170.113 113.804 171.855 114.931 172.643 116.684L173.151 117.818Z" fill="#A9CBD3"/>
<path fill-rule="evenodd" clip-rule="evenodd" d="M181.177 120.014C182.508 121.521 182.407 124.696 182.508 125.358C182.609 126.02 185.875 123.718 186.115 122.473C186.355 121.228 184.427 115.829 184.427 115.829L181.177 120.014Z" fill="#A9CBD3"/>
<path fill-rule="evenodd" clip-rule="evenodd" d="M155.372 111.332L161.718 110.922C163.746 116.108 163.746 121.868 161.718 127.054C158.344 135.998 151.602 140.238 143.954 139.432L155.372 111.332Z" fill="#CCE4EA"/>
<path fill-rule="evenodd" clip-rule="evenodd" d="M153.769 109.93L160.115 109.52C162.142 114.706 162.142 120.465 160.115 125.651C156.74 134.596 149.998 138.835 142.351 138.03L153.769 109.93Z" fill="#007CB6"/>
<path fill-rule="evenodd" clip-rule="evenodd" d="M142.352 138.03C143.519 138.151 144.696 138.149 145.864 138.024C149.37 133.991 153.541 128.931 155.536 125.513C158.17 120.989 158.582 115.508 156.655 110.641C156.428 110.306 156.138 110.02 155.8 109.799L153.77 109.93L142.352 138.03Z" fill="#00629E"/>
<path fill-rule="evenodd" clip-rule="evenodd" d="M141.154 135.17C141.154 135.17 109.931 173.953 107.602 176.631C105.273 179.309 104.808 181.987 99.4514 181.871C94.0944 181.755 90.1365 182.802 85.7114 183.85C81.2864 184.898 78.1434 184.55 78.4915 181.986C78.8395 179.422 83.9645 176.164 83.9645 176.164L73.0195 172.205C74.2806 170.593 76.2118 169.649 78.2585 169.643C81.8676 169.526 87.8065 171.157 89.5536 171.157C91.3007 171.157 92.9305 169.992 96.1915 165.567C99.4525 161.142 124.37 127.608 124.37 127.608L141.154 135.17Z" fill="#F8C6A3"/>
<path fill-rule="evenodd" clip-rule="evenodd" d="M120.805 132.407C118.781 135.132 116.086 138.76 113.205 142.637C115.518 145.376 117.894 147.677 118.905 147.93C120.218 148.258 123.686 147.339 125.316 147.388C125.316 147.388 105.562 173.648 103.045 176.542C100.528 179.436 95.7737 178.413 91.4227 179.663C87.0718 180.913 81.6897 184.918 78.6377 183.163C79.3267 184.627 82.0887 184.709 85.7126 183.851C90.1366 182.802 94.0967 181.751 99.4526 181.872C104.809 181.993 105.276 179.31 107.604 176.632C109.367 174.606 127.674 151.905 136.476 140.98L120.805 132.407Z" fill="#F2A37C"/>
<path fill-rule="evenodd" clip-rule="evenodd" d="M87.0095 174.528C87.0095 174.528 76.2526 171.936 75.3256 171.585C74.5155 171.279 75.2926 170.299 75.9045 170.1C74.7596 170.509 73.7577 171.241 73.0195 172.207L83.9645 176.166C84.9507 175.568 85.967 175.021 87.0096 174.528H87.0095Z" fill="#F2A37C"/>
<path opacity="0.3" fill-rule="evenodd" clip-rule="evenodd" d="M96.1921 165.569C92.9312 169.994 91.3011 171.159 89.5542 171.159C87.8073 171.159 81.8691 169.528 78.2592 169.645C77.9894 169.655 77.7203 169.679 77.4531 169.717C81.2001 169.769 85.3751 171.357 87.4471 171.895C89.5192 172.433 91.4471 172.895 93.8811 170.1C96.3151 167.305 112.666 143.366 112.671 143.358C105.715 152.723 97.9181 163.223 96.1921 165.569Z" fill="white"/>
<path fill-rule="evenodd" clip-rule="evenodd" d="M153.765 109.93C151.812 106.83 142.286 107.015 134.648 113.53C125.962 120.938 117.761 129.41 117.761 129.41C117.761 129.41 118.894 133.55 125.267 139.158C128.512 142.148 132.775 143.79 137.188 143.751C137.188 143.751 148.851 131.303 152.647 124.805C155.281 120.28 155.693 114.797 153.765 109.93Z" fill="#DEF1F8"/>
<path fill-rule="evenodd" clip-rule="evenodd" d="M125.272 139.156C128.517 142.146 132.779 143.788 137.192 143.749C137.192 143.749 148.854 131.301 152.651 124.802C153.954 122.589 154.728 120.104 154.913 117.542L154.902 117.488C151.792 124.655 136.902 141.21 117.765 129.408C117.765 129.408 118.898 133.548 125.272 139.156Z" fill="#CCE4EA"/>
<path fill-rule="evenodd" clip-rule="evenodd" d="M150.336 109.399C145.573 109.155 140.867 110.517 136.97 113.266C133.334 115.844 130.631 118.842 136.97 119.251C143.309 119.66 149.634 114.998 151.231 113.266C152.747 111.626 153.711 109.68 150.336 109.399Z" fill="#E9F6FB"/>
<path fill-rule="evenodd" clip-rule="evenodd" d="M147.475 110.249C143.664 110.671 140.942 111.914 139.428 113.474C137.914 115.034 146.718 113.918 149.459 112.743C152.832 111.298 151.704 109.78 147.475 110.249Z" fill="#EFF8FC"/>
<path fill-rule="evenodd" clip-rule="evenodd" d="M182.051 109.991C182.051 109.991 185.375 109.752 186.927 111.879C188.253 113.697 188.967 117.042 187.67 121.151C186.25 125.651 184.284 125.717 183.87 125.635C183.456 125.553 183.916 121.035 182.328 119.423C180.74 117.811 178.667 115.657 178.667 115.657C178.667 115.657 180.23 110.979 182.051 109.991Z" fill="#DEF1F8"/>
<path fill-rule="evenodd" clip-rule="evenodd" d="M187.572 113.04C187.397 112.631 187.18 112.242 186.925 111.878C185.373 109.751 182.049 109.99 182.049 109.99C180.228 110.978 178.667 115.656 178.667 115.656C178.667 115.656 180.741 117.813 182.328 119.422C183.185 120.292 183.445 122.008 183.568 123.416C183.912 120.535 183.268 118.585 182.505 115.89C182.141 114.565 182.781 113.169 184.023 112.58C185.209 112.137 186.538 112.309 187.572 113.04H187.572Z" fill="#CCE4EA"/>
<path fill-rule="evenodd" clip-rule="evenodd" d="M186.346 114.255C184.929 113.417 184.333 115.724 184.831 118.255C185.104 120.183 185.077 122.143 184.751 124.063C184.707 124.763 185.985 123.801 186.897 121.163C187.809 118.525 188.068 115.273 186.346 114.255Z" fill="#E9F6FB"/>
<path fill-rule="evenodd" clip-rule="evenodd" d="M169.1 102.609C167.177 105.03 165.055 107.285 162.754 109.35C162.754 109.35 166.605 117.843 174.393 119.423C174.393 119.423 179.849 115.878 182.093 110.4C182.093 110.4 181.154 107.205 176.075 104.384C170.996 101.563 169.1 102.609 169.1 102.609Z" fill="#F8C6A3"/>
<path fill-rule="evenodd" clip-rule="evenodd" d="M176.071 104.383C170.993 101.562 169.1 102.608 169.1 102.608C169.1 102.608 168.8 103.019 168.114 103.823L167.682 104.323C167.682 104.323 168.872 108.223 173.958 111.09C175.964 112.247 178.165 113.027 180.452 113.39C181.098 112.453 181.647 111.452 182.09 110.403C182.09 110.403 181.149 107.204 176.071 104.383Z" fill="#F2A37C"/>
<path fill-rule="evenodd" clip-rule="evenodd" d="M176.071 104.383C170.993 101.562 169.1 102.608 169.1 102.608C169.1 102.608 168.914 102.858 168.545 103.308C172.608 107.777 177.91 109.308 182.089 110.399C182.089 110.399 181.15 107.204 176.071 104.383Z" fill="#DD8964"/>
<path fill-rule="evenodd" clip-rule="evenodd" d="M174.147 128.604C174.018 130.736 173.347 136.547 166.72 137.088C160.093 137.629 155.502 136.878 145.366 128.604C135.23 120.33 129.959 116.253 120.633 117.818C117.524 118.573 106.982 128.167 106.848 130.601C106.714 133.035 118.741 143.98 119.957 144.927C121.173 145.874 128.222 144.044 135.545 147.118C141.9 149.785 147.945 156.009 161.926 153.847C175.907 151.685 182.233 137.147 180.22 128.605C180.221 128.604 178.466 126.466 174.147 128.604Z" fill="#EA4D5F"/>
<path fill-rule="evenodd" clip-rule="evenodd" d="M139.422 123.874C137.51 122.383 135.483 121.045 133.36 119.874C127.078 126.821 119.429 132.395 110.892 136.246C113.474 139.003 116.668 142.003 118.524 143.676C128.323 138.084 136.538 128.367 139.422 123.874Z" fill="#EFF8FC"/>
<path fill-rule="evenodd" clip-rule="evenodd" d="M148.75 153.262C151.532 154.035 154.416 154.375 157.302 154.272C158.891 148.484 159.271 142.43 158.418 136.488C156.91 136.032 155.454 135.421 154.073 134.663C153.76 141.191 151.938 147.557 148.75 153.262Z" fill="#EFF8FC"/>
<path fill-rule="evenodd" clip-rule="evenodd" d="M168.18 151.859C170.074 150.909 171.816 149.681 173.346 148.216C172.43 144.111 170.672 140.24 168.182 136.85C167.702 136.966 167.214 137.045 166.721 137.087C165.638 137.175 164.612 137.223 163.605 137.215C166.695 141.462 168.303 146.608 168.18 151.859Z" fill="#EFF8FC"/>
<path fill-rule="evenodd" clip-rule="evenodd" d="M140.212 149.503C145.281 143.279 147.838 135.829 149 131.419C147.868 130.593 146.664 129.662 145.367 128.603C144.925 128.241 144.502 127.903 144.078 127.553C140.726 135.974 134.762 142.353 131.015 145.764C132.568 146.057 134.086 146.51 135.546 147.116C137.142 147.829 138.699 148.626 140.212 149.503H140.212Z" fill="#EFF8FC"/>
<path fill-rule="evenodd" clip-rule="evenodd" d="M173.663 131.529C173.292 132.884 172.567 134.116 171.562 135.099C174.314 136.449 176.698 138.445 178.51 140.917C179.196 139.417 179.724 137.85 180.084 136.241C178.276 134.262 176.093 132.661 173.663 131.529Z" fill="#EFF8FC"/>
<g style="mix-blend-mode:multiply" opacity="0.2">
<path fill-rule="evenodd" clip-rule="evenodd" d="M174.148 128.603C174.107 130.801 173.354 132.927 172.001 134.66V134.66C173.409 133.371 174.411 131.7 174.885 129.851C174.885 129.851 179.068 131.183 180.221 128.6L177.15 127.681C176.101 127.8 175.083 128.112 174.148 128.603Z" fill="#242357"/>
</g>
<path fill-rule="evenodd" clip-rule="evenodd" d="M174.136 116.112C175.441 115.567 179.062 114.912 180.8 116.726C182.538 118.54 182.938 120.709 182.051 123.896C181.643 125.537 181.028 127.119 180.221 128.604C178.345 129.701 176.023 129.701 174.147 128.604C171.565 126.304 170.087 123.011 170.085 119.553C171.091 118.054 172.494 116.863 174.136 116.112Z" fill="#EA4D5F"/>
<path fill-rule="evenodd" clip-rule="evenodd" d="M180.614 127.85C178.08 124.43 174.386 122.051 170.224 121.16C170.371 122.193 170.642 123.204 171.032 124.172C173.846 125.315 176.375 127.063 178.44 129.291C179.071 129.175 179.674 128.941 180.22 128.603C180.22 128.603 180.376 128.346 180.614 127.85Z" fill="#EFF8FC"/>
<path fill-rule="evenodd" clip-rule="evenodd" d="M175.146 115.797C174.802 115.875 174.464 115.98 174.136 116.111C173.286 116.519 172.492 117.034 171.771 117.642C175.771 118.57 179.374 120.74 182.064 123.842C182.419 122.686 182.559 121.475 182.475 120.268C180.432 118.205 177.916 116.67 175.146 115.797Z" fill="#EFF8FC"/>
<g style="mix-blend-mode:multiply" opacity="0.2">
<path fill-rule="evenodd" clip-rule="evenodd" d="M173.151 123.823C172.481 119.953 173.864 116.408 175.775 115.671C175.214 115.759 174.665 115.907 174.136 116.112C172.494 116.863 171.091 118.054 170.085 119.553C170.086 123.01 171.564 126.303 174.146 128.603C175.064 129.096 176.084 129.37 177.126 129.404C175.366 128.734 173.761 127.346 173.151 123.823Z" fill="#242357"/>
</g>
<g style="mix-blend-mode:multiply" opacity="0.2">
<path fill-rule="evenodd" clip-rule="evenodd" d="M160.947 151.248C148.747 150.981 144.96 146.648 135.497 142.433C130.914 140.393 123.421 140.872 121.573 140.025C119.273 138.97 109.834 130.888 109.539 130.031C109.024 128.531 115.433 121.151 115.433 121.151C111.443 124.391 106.938 129.015 106.851 130.6C106.716 133.032 118.744 143.979 119.96 144.926C121.176 145.873 128.225 144.043 135.548 147.117C141.903 149.784 147.948 156.008 161.929 153.846C167.759 152.942 172.956 149.668 176.289 144.799C173.337 148.224 169.512 151.436 160.947 151.248Z" fill="#242357"/>
</g>
<path opacity="0.15" fill-rule="evenodd" clip-rule="evenodd" d="M129.713 119.68C127.075 118.878 124.299 118.629 121.56 118.949C119.972 119.237 117.12 121.889 115.403 124.003C112.43 127.661 119.811 123.793 130.175 128.113C140.539 132.433 153.88 139.427 156.539 138.568C159.198 137.709 151.434 134.873 145.339 129.968C140.271 125.874 134.051 121 129.713 119.68Z" fill="white"/>
<path opacity="0.15" fill-rule="evenodd" clip-rule="evenodd" d="M180.221 117.131C178.446 115.966 177.702 119.102 177.881 122.472C178.061 125.842 178.45 128.486 179.418 128.072C180.386 127.658 181.962 123.487 181.846 121.162C181.73 118.837 181.108 117.715 180.221 117.131Z" fill="white"/>
<path fill-rule="evenodd" clip-rule="evenodd" d="M167.407 104.635C166.382 103.812 165.043 103.487 163.754 103.748C161.297 104.065 154.244 108.978 153.769 109.93C153.294 110.882 153.427 114.983 158.369 120.708C161.12 123.898 165.819 125.86 167.087 126.256C168.355 126.652 167.615 119.156 174.141 116.112C174.141 116.112 174.49 114.696 171.341 113.347C169.041 112.365 165.783 109.347 165.625 106.56L167.407 104.635Z" fill="#DEF1F8"/>
<path fill-rule="evenodd" clip-rule="evenodd" d="M165.616 106.56L167.407 104.635C166.382 103.812 165.043 103.487 163.754 103.748C161.297 104.065 154.244 108.978 153.769 109.93C153.294 110.882 153.427 114.983 158.369 120.708C155.618 116.775 155.978 111.022 158.151 109.35C160.324 107.678 163.502 105.118 164.593 107.903C165.684 110.688 170.093 112.669 170.093 112.67C168.007 111.333 165.747 108.876 165.616 106.56Z" fill="#CCE4EA"/>
<path fill-rule="evenodd" clip-rule="evenodd" d="M170.455 114.71C171.587 114.076 174.268 114.853 172.297 116.159C169.362 118.105 167.503 123.048 167.157 124.048C166.811 125.048 164.478 124.166 162.602 122.987C160.726 121.808 159.26 120.545 158.861 119.276C158.689 118.726 162.835 121.462 165.255 119.423C167.675 117.384 168.179 115.986 170.455 114.71Z" fill="#E9F6FB"/>
<path fill-rule="evenodd" clip-rule="evenodd" d="M154.094 90.7631C153.044 95.3321 154.773 98.1111 155.946 99.2841C157.119 100.457 159.528 101.198 160.33 98.6661C161.242 100.708 163.046 102.214 165.218 102.748C168.862 103.613 170.086 101.013 170.086 101.013L164.22 91.9991L154.094 90.7631Z" fill="#D65132"/>
<path fill-rule="evenodd" clip-rule="evenodd" d="M154.094 90.7631C153.811 91.9407 153.716 93.1556 153.811 94.363C156.017 96.3948 159.253 96.8425 161.928 95.4861C161.928 95.4861 163.609 101.011 168.6 102.456C169.227 102.131 169.744 101.629 170.086 101.011L164.22 91.9971L154.094 90.7631Z" fill="#BA422B"/>
<path fill-rule="evenodd" clip-rule="evenodd" d="M194.041 55.7341C201.97 55.7341 211.687 61.3181 213.921 70.0341C216.155 78.7501 215.484 86.0051 216.601 91.0341C217.301 94.175 217.82 98.0181 216.373 101.365C216.107 101.982 215.802 102.582 215.459 103.16C213.089 107.16 208.609 110.018 202.308 111.501C195.058 113.034 187.521 112.458 180.588 109.842C171.988 106.268 166.232 102.314 162.546 92.709C158.423 81.4949 162.478 68.9149 172.373 62.2191C183.431 54.7281 194.041 55.7341 194.041 55.7341Z" fill="#F8C6A3"/>
<path fill-rule="evenodd" clip-rule="evenodd" d="M164.355 83.048C164.523 84.572 165.916 86.016 168.611 85.021C171.307 84.026 176.337 79.391 177.311 67.115L164.355 83.048Z" fill="#F2A37C"/>
<path fill-rule="evenodd" clip-rule="evenodd" d="M194.041 55.734C190.652 55.5786 187.26 55.9719 183.996 56.899C180.769 58.899 177.881 60.599 177.881 60.599C181.628 68.657 189.755 73.614 194.903 74.724C200.051 75.834 206.218 75.824 208.503 72.672C210.648 69.713 207.363 66.664 207.363 66.664C209.205 67.908 211.333 68.6614 213.548 68.853C210.778 60.822 201.607 55.734 194.041 55.734Z" fill="#F2A37C"/>
<circle opacity="0.5" cx="178.558" cy="92.054" r="8.771" fill="#EE9681"/>
<path opacity="0.5" fill-rule="evenodd" clip-rule="evenodd" d="M208.523 92.292C208.523 96.8228 211.977 100.608 216.49 101.023C217.767 97.755 217.276 94.065 216.6 91.0229C216.156 88.5895 215.889 86.1271 215.8 83.655C211.597 84.3801 208.525 88.0259 208.524 92.292H208.523Z" fill="#EE9681"/>
<path fill-rule="evenodd" clip-rule="evenodd" d="M216.277 89.192C214.927 90.2325 213.273 90.7994 211.569 90.805C207.087 90.805 203.437 86.905 203.34 82.075C203.245 82.0408 203.154 81.9993 203.067 81.951C202.837 81.817 202.613 81.673 202.39 81.53C202.39 81.647 202.373 81.762 202.373 81.88C202.373 81.938 202.381 81.995 202.382 82.052C202.063 81.9218 201.72 81.863 201.376 81.88C200.498 81.8589 199.63 82.0715 198.862 82.496C198.873 82.296 198.894 82.089 198.894 81.88V81.849C198.755 81.9769 198.627 82.1149 198.509 82.262C198.354 82.4753 198.14 82.6387 197.894 82.732C197.432 88.2474 192.704 92.4185 187.174 92.19C181.644 91.9615 177.277 87.4147 177.272 81.88C177.272 81.594 177.291 81.311 177.315 81.03C177.185 80.9703 177.064 80.8958 176.952 80.808L176.422 80.397C176.402 80.553 176.388 80.71 176.372 80.867L161.643 78.667L162.414 82.913L176.404 83.248C177.068 88.7122 181.579 92.8994 187.077 93.1564C192.576 93.4135 197.457 89.6654 198.629 84.287C199.493 83.8475 200.448 83.619 201.417 83.62C201.805 83.6115 202.19 83.6766 202.553 83.812C203.253 88.2872 207.042 91.6285 211.57 91.762C213.31 91.7582 215.009 91.2306 216.446 90.248L216.277 89.192Z" fill="#F2A37C"/>
<path fill-rule="evenodd" clip-rule="evenodd" d="M216.277 89.192C214.927 90.2322 213.273 90.799 211.569 90.8051C210.61 90.8024 209.66 90.6181 208.769 90.262C208.693 90.5793 208.636 90.9005 208.596 91.2241C209.547 91.5782 210.554 91.7604 211.57 91.762C213.31 91.7582 215.009 91.2307 216.446 90.248L216.333 89.541C216.322 89.463 216.307 89.3881 216.296 89.309L216.277 89.192Z" fill="#EB7C74"/>
<path opacity="0.3" fill-rule="evenodd" clip-rule="evenodd" d="M216.06 92.955C216.671 97.513 216.43 101.58 211.851 105.732C206.496 110.587 196.696 112.505 190.262 112.12C194.285 112.562 198.353 112.351 202.309 111.494C208.609 110.011 213.089 107.149 215.46 103.153C215.803 102.575 216.108 101.975 216.374 101.358C217.821 98.01 217.3 94.168 216.602 91.027C216.211 88.9889 215.97 86.9251 215.879 84.8519L215.724 84.741C215.969 86.131 215.447 88.397 216.06 92.955Z" fill="white"/>
<path fill-rule="evenodd" clip-rule="evenodd" d="M187.252 93.152C187.293 92.8353 187.316 92.5164 187.321 92.1971C182.306 92.0547 178.118 88.3315 177.389 83.368C177.074 83.4106 176.762 83.47 176.454 83.5461C177.264 88.9344 181.806 92.9756 187.252 93.152Z" fill="#EB7C74"/>
<path opacity="0.3" fill-rule="evenodd" clip-rule="evenodd" d="M177.502 84.584C177.502 85.584 176.231 86.3841 174.664 86.3841C173.097 86.3841 171.826 85.5771 171.826 84.584C171.826 83.5911 173.097 82.7841 174.664 82.7841C176.231 82.7841 177.502 83.5891 177.502 84.584Z" fill="white"/>
<g style="mix-blend-mode:multiply" opacity="0.7">
<path fill-rule="evenodd" clip-rule="evenodd" d="M186.928 89.964C191.385 89.964 195.864 86.675 196.543 80.331C197.222 73.987 192.584 67.879 184.807 70.189C177.03 72.499 176.858 81.751 179.207 85.349C180.846 88.0823 183.744 89.8145 186.928 89.964Z" fill="url(#paint1_linear)"/>
</g>
<g style="mix-blend-mode:multiply" opacity="0.7">
<path fill-rule="evenodd" clip-rule="evenodd" d="M213.939 70.1251C212.133 69.5446 210.189 69.5527 208.388 70.148C201.248 72.2631 201.093 80.759 203.25 84.0601C204.755 86.5699 207.415 88.16 210.338 88.296C212.416 88.291 214.42 87.5202 215.965 86.131C215.632 81.707 215.509 76.2791 213.939 70.1251Z" fill="url(#paint2_linear)"/>
</g>
<path fill-rule="evenodd" clip-rule="evenodd" d="M161.642 77.79C163.091 79.2037 164.043 81.0483 164.356 83.048C164.65 85.1121 167.948 85.933 172.402 79.6531C178.558 70.975 177.881 60.6 177.881 60.6C181.914 64.8605 186.652 68.3919 191.888 71.0381C200.043 74.9681 204.857 73.9171 207.215 72.92C209.573 71.923 211.243 69.0731 209.081 65.5361C209.081 65.5361 213.109 68.6801 220.87 68.3851C228.631 68.09 231.775 64.3571 229.613 61.5081C227.451 58.6591 223.301 56.429 217.295 54.6171C217.295 54.6171 224.21 54.043 223.818 50.212C223.426 46.381 213.646 37.027 194.975 39.6121C173.996 42.5121 170.832 53.2371 170.832 53.2371C170.832 53.2371 167.946 51.5551 161.642 51.6041C157.191 51.639 154.261 53.423 153.966 54.429C153.671 55.4351 154.315 56.0161 156.346 56.793C157.916 57.3603 159.452 58.0177 160.946 58.762C157.283 59.9249 153.901 61.8371 151.017 64.377C146.007 68.699 146.07 72.6611 146.596 73.2181C147.583 74.264 150.163 71.801 153.896 71.309C153.896 71.309 151.311 77.132 151.996 82.1411C152.681 87.1501 161.642 77.79 161.642 77.79Z" fill="#E26644"/>
<path fill-rule="evenodd" clip-rule="evenodd" d="M183.146 53.509C180.746 53.923 179.038 55.916 182.331 57.093C185.624 58.27 196.046 62.646 200.963 66.631C206.177 70.858 210.288 71.681 209.004 67.614C207.18 62.8167 203.719 58.8184 199.233 56.325C194.346 53.5861 188.673 52.5929 183.146 53.509H183.146Z" fill="#EE7249"/>
<path fill-rule="evenodd" clip-rule="evenodd" d="M204.061 73.738C198.615 73.392 188.376 68.763 178.39 56.651C178.252 56.4835 178.019 56.4276 177.82 56.5137C177.62 56.5999 177.501 56.8073 177.528 57.023C177.652 57.978 177.792 59.239 177.88 60.601C181.913 64.8616 186.652 68.3933 191.887 71.04C197.365 73.679 201.329 74.064 204.061 73.738Z" fill="#D65132"/>
<path fill-rule="evenodd" clip-rule="evenodd" d="M183.507 42.488C172.753 46.736 170.832 53.236 170.832 53.236C170.832 53.236 167.946 51.554 161.642 51.603C157.191 51.637 154.261 53.4221 153.966 54.428C153.671 55.434 154.315 56.015 156.346 56.7921C157.916 57.3593 159.452 58.0167 160.946 58.761C157.283 59.9239 153.902 61.8361 151.017 64.376C146.007 68.6981 146.07 72.66 146.596 73.217C147.583 74.2631 150.163 71.8001 153.896 71.308C153.896 71.308 151.311 77.131 151.996 82.1401C152.681 87.149 161.637 77.79 161.637 77.79C162.469 78.6277 163.15 79.6039 163.647 80.675C164.18 79.6951 164.575 78.73 164.21 78.175C162.328 75.3021 161.632 71.053 163.41 65.655C164.402 62.0943 166.916 59.1537 170.28 57.621C171.62 56.9755 173.093 56.6545 174.58 56.684C174.744 56.6881 174.897 56.6066 174.986 56.4691C175.046 56.3163 175.038 56.1453 174.963 55.9991C174.399 54.2693 174.387 52.4073 174.927 50.67C175.885 47.796 177.919 45.33 183.507 42.488Z" fill="#D65132"/>
<path fill-rule="evenodd" clip-rule="evenodd" d="M163.8 81.0161C164.067 81.6682 164.254 82.3506 164.356 83.0481C164.518 84.1851 165.635 84.9641 167.323 84.3781C166.798 84.5384 166.228 84.3983 165.838 84.0131C165.669 83.7009 165.601 83.3434 165.646 82.9911L169.446 83.0821H169.452C170.008 82.6064 170.522 82.0849 170.991 81.5231L167.601 81.2851L163.8 81.0161Z" fill="#D65132"/>
<path fill-rule="evenodd" clip-rule="evenodd" d="M220.87 68.385C225.951 68.193 229.037 66.524 229.969 64.5959C225.714 68.0959 215.778 65.5179 211.569 63.539C209.391 62.4602 207.275 61.2582 205.233 59.939C206.867 61.5381 208.174 63.4402 209.08 65.539C209.08 65.539 213.109 68.68 220.87 68.385Z" fill="#D65132"/>
<path fill-rule="evenodd" clip-rule="evenodd" d="M223.817 50.2111C223.633 49.2122 223.169 48.2859 222.48 47.54C224.753 50.84 220.755 51.7581 217.969 52.316C215.183 52.874 207.721 53.2921 207.721 53.2921C207.721 53.2921 215.04 54.199 217.295 54.616C217.295 54.616 224.21 54.043 223.817 50.2111Z" fill="#D65132"/>
<path fill-rule="evenodd" clip-rule="evenodd" d="M158.274 55.074C155.5 54.3641 155.512 53.0151 156.843 52.415C155.163 53.0261 154.133 53.8531 153.964 54.428C153.669 55.4351 154.313 56.0151 156.344 56.7921C157.914 57.3593 159.45 58.0167 160.944 58.761C162.321 58.3563 163.731 58.0742 165.157 57.918C162.951 56.769 160.648 55.8173 158.274 55.074Z" fill="#BA422B"/>
<path fill-rule="evenodd" clip-rule="evenodd" d="M150.011 70.1171C147.711 71.243 146.38 71.8701 146.566 70.762C146.25 71.5518 146.261 72.4345 146.597 73.2161C147.584 74.262 150.164 71.7991 153.897 71.3071C154.427 69.9081 155.171 68.5998 156.102 67.4291C154.023 68.2102 151.989 69.1076 150.011 70.1171H150.011Z" fill="#BA422B"/>
<path fill-rule="evenodd" clip-rule="evenodd" d="M209.371 41.307C201.863 39.1711 186.221 40.377 179.631 46.472C177.479 48.462 183.186 47.1931 190.403 47.2991C197.189 47.5175 203.945 48.3165 210.595 49.6871C217.829 51.287 222.622 50.847 222.118 48.9971C221.614 47.147 216.661 43.377 209.371 41.307Z" fill="#EE7249"/>
<path fill-rule="evenodd" clip-rule="evenodd" d="M229.459 63.8291C230.067 62.2961 226.886 58.9741 222.154 57.1401C217.422 55.3061 210.595 54.0401 209.071 54.6171C207.379 55.2611 212.564 62.3591 220.227 64.6411C226.872 66.6191 228.942 65.1251 229.459 63.8291Z" fill="#EE7249"/>
<path fill-rule="evenodd" clip-rule="evenodd" d="M176.039 60.429C175.039 59.0731 171.293 60.5831 169.033 64.452C166.146 69.394 167.233 77.08 169.255 77.7891C171.277 78.498 174.164 73.72 175.213 69.689C176.262 65.658 176.916 61.619 176.039 60.429Z" fill="#EE7249"/>
<path fill-rule="evenodd" clip-rule="evenodd" d="M157.612 52.869C156.59 53.186 157.34 54.3911 159.098 54.424C160.873 54.458 167.631 54.0781 167.542 53.444C167.453 52.81 162.061 51.486 157.612 52.869Z" fill="#E26644"/>
<path fill-rule="evenodd" clip-rule="evenodd" d="M147.709 70.117C147.967 70.429 149.368 69.94 150.677 68.655C151.986 67.3701 155.782 63.012 156.104 62.455C156.426 61.898 153.423 62.933 150.677 65.538C147.931 68.143 147.433 69.784 147.709 70.117Z" fill="#E26644"/>
<path fill-rule="evenodd" clip-rule="evenodd" d="M215.706 55.99C218.537 56.69 225.13 57.955 228.929 62.628C227.221 61.1544 225.291 59.9606 223.209 59.091C220.766 57.9222 218.261 56.8871 215.706 55.99H215.706Z" fill="#F49A6E"/>
<path fill-rule="evenodd" clip-rule="evenodd" d="M188.668 42.4881C191.984 41.1611 204.691 40.4671 210.792 42.4881C218.002 44.8751 220.392 47.9581 220.392 47.9581C216.382 46.0247 212.116 44.6777 207.723 43.9581C209.945 44.0478 212.154 44.338 214.323 44.8251C214.323 44.825 210.223 42.2251 202.037 41.8251C197.57 41.5388 193.085 41.7612 188.668 42.4881H188.668Z" fill="#F49A6E"/>
<path fill-rule="evenodd" clip-rule="evenodd" d="M198.261 56.472C202.198 57.98 207.092 63.267 208.32 66.9091C207.026 64.8173 205.5 62.8784 203.771 61.1291C202.054 59.4404 200.212 57.8837 198.261 56.4721V56.472Z" fill="#F49A6E"/>
<path fill-rule="evenodd" clip-rule="evenodd" d="M175.686 62.085C175.738 63.993 174.95 71.8149 170.831 76.748C170.387 74.8945 170.387 72.9625 170.831 71.109C170.897 72.2884 171.055 73.4609 171.302 74.616C171.302 74.616 174.191 71.007 175.686 62.085Z" fill="#F49A6E"/>
<g style="mix-blend-mode:multiply" opacity="0.5">
<path fill-rule="evenodd" clip-rule="evenodd" d="M190.348 69.104C190.218 67.886 187.635 66.714 183.954 68.781C180.273 70.848 178.98 74.081 179.239 75.046C179.498 76.011 182.839 74.606 185.181 73.6899C189.121 72.146 190.734 72.7209 190.348 69.104Z" fill="#F2A37C"/>
</g>
<g style="mix-blend-mode:multiply" opacity="0.5">
<path fill-rule="evenodd" clip-rule="evenodd" d="M215.037 75.689C214.873 74.5601 214.671 73.4 214.421 72.209C213.59 71.0347 212.498 70.0697 211.23 69.39C207.548 67.322 206.168 69.112 206.152 70.338C206.116 73.109 208.552 73.5001 210.852 74.29C212.763 74.945 214.348 75.853 215.037 75.689Z" fill="#F2A37C"/>
</g>
<path fill-rule="evenodd" clip-rule="evenodd" d="M190.791 67.6511C190.624 66.157 187.634 65.3841 183.952 67.451C180.27 69.5181 178.978 72.7511 179.237 73.717C179.496 74.683 182.837 73.2761 185.179 72.36C189.121 70.8171 191.138 70.7591 190.791 67.6511Z" fill="#D65132"/>
<path fill-rule="evenodd" clip-rule="evenodd" d="M186.577 70.1171C183.177 71.2231 181.277 71.6801 181.435 70.441C181.593 69.2021 183.424 67.7301 183.952 67.451C180.27 69.519 178.978 72.7511 179.237 73.717C179.496 74.683 182.837 73.2761 185.179 72.36C189.121 70.8171 191.138 70.7601 190.791 67.6511C190.616 68.4391 189.979 69.011 186.577 70.1171Z" fill="#BA422B"/>
<path fill-rule="evenodd" clip-rule="evenodd" d="M206.157 69.0071C206.172 67.7811 207.557 65.9921 211.235 68.0591C214.913 70.1262 215.649 73.0742 215.39 74.0432C215.131 75.0121 213.233 73.7742 210.856 72.9592C208.548 72.1702 206.116 71.7792 206.157 69.0071Z" fill="#D65132"/>
<path fill-rule="evenodd" clip-rule="evenodd" d="M213.975 72.9421C212.947 72.3212 210.12 71.2421 208.392 70.1492C206.684 69.0671 207.184 67.4111 208.549 67.1301C207.975 67.0156 207.379 67.1572 206.918 67.5181C206.456 67.879 206.176 68.4232 206.149 69.0082C206.113 71.7792 208.549 72.1711 210.849 72.9601C213.226 73.7751 215.124 75.0121 215.383 74.0441C215.476 73.3719 215.369 72.687 215.073 72.0762C215.372 72.7021 215.001 73.5621 213.975 72.9421Z" fill="#BA422B"/>
<path fill-rule="evenodd" clip-rule="evenodd" d="M211.569 90.8851C206.498 90.8851 202.369 86.451 202.369 81.001C202.369 75.551 206.494 71.1171 211.569 71.1171C216.644 71.1171 220.769 75.551 220.769 81.001C220.769 86.451 216.64 90.8851 211.569 90.8851ZM211.569 72.0751C207.027 72.0751 203.33 76.0751 203.33 81.001C203.33 85.9271 207.03 89.9271 211.569 89.9271C216.108 89.9271 219.808 85.9271 219.808 81.001C219.808 76.0751 216.112 72.0751 211.569 72.0751Z" fill="#19313A"/>
<ellipse cx="186.928" cy="82.8464" rx="7.11961" ry="7.1196" fill="white"/>
<path opacity="0.2" fill-rule="evenodd" clip-rule="evenodd" d="M184.031 87.1571C181.498 84.4629 181.13 80.3886 183.139 77.2841L182.887 76.9841C180.411 78.6945 179.279 81.777 180.059 84.6832C180.839 87.5893 183.363 89.6908 186.362 89.9318C189.361 90.1729 192.188 88.5014 193.422 85.7571C191.407 88.4301 186.195 89.1211 184.031 87.1571Z" fill="#BAC4CA"/>
<path fill-rule="evenodd" clip-rule="evenodd" d="M179.906 84.0141C179.906 84.0141 180.136 78.9701 184.191 77.3081C188.757 75.4371 192.691 77.8881 193.5 80.1271C193.581 79.4918 193.419 78.8494 193.049 78.3271C191.877 76.5271 188.992 74.3081 184.426 75.8331C180.921 76.8474 178.899 80.5073 179.906 84.0141Z" fill="#19313A"/>
<path fill-rule="evenodd" clip-rule="evenodd" d="M194.046 82.8461C194.048 82.1516 193.946 81.4612 193.746 80.7966C193.425 79.7079 192.581 78.8521 191.496 78.5172C190.129 78.0713 188.627 78.3749 187.54 79.3171C185.426 81.3434 184.94 84.5389 186.356 87.1021C186.866 87.8365 187.583 88.4021 188.415 88.7261C189.64 89.1528 191.001 88.8391 191.915 87.9191C193.28 86.5845 194.049 84.7552 194.046 82.8461Z" fill="#19313A"/>
<path fill-rule="evenodd" clip-rule="evenodd" d="M187.571 88.2802C187.834 88.461 188.116 88.611 188.413 88.7272C189.638 89.1539 190.999 88.8401 191.913 87.9202C192.542 87.3002 193.051 86.5688 193.413 85.7632C191.933 87.4231 189.795 88.3443 187.571 88.2802Z" fill="#002030"/>
<path fill-rule="evenodd" clip-rule="evenodd" d="M192.671 79.6531C192.214 79.1853 191.527 79.0246 190.911 79.2412C190.294 79.4579 189.858 80.0125 189.795 80.6631C189.527 82.5342 190.8 84.5851 192.35 84.5851C193.374 84.5851 193.85 83.6111 193.71 82.1522C193.68 81.2203 193.31 80.3314 192.671 79.6531Z" fill="white"/>
<path fill-rule="evenodd" clip-rule="evenodd" d="M203.197 82.1691C203.161 81.8718 203.014 81.599 202.787 81.4041C202.381 81.1037 201.879 80.9615 201.376 81.0041C200.444 80.9761 199.524 81.2147 198.723 81.6921C198.384 81.8942 198.154 82.239 198.098 82.6301L197.923 83.8421C198.943 83.116 200.166 82.731 201.418 82.7421C203.075 82.7421 203.426 83.6551 203.426 83.6551L203.197 82.1691Z" fill="#19313A"/>
<path fill-rule="evenodd" clip-rule="evenodd" d="M201.376 81.001C200.444 80.9725 199.523 81.2113 198.723 81.6891C198.384 81.8912 198.154 82.236 198.098 82.6271L197.923 83.8391C198.943 83.113 200.166 82.728 201.418 82.7391C203.075 82.7391 203.426 83.6521 203.426 83.6521C202.836 81.8291 200.12 82.485 200.012 82.0341C199.904 81.5831 200.345 81.0891 201.376 81.001Z" fill="#002030"/>
<path fill-rule="evenodd" clip-rule="evenodd" d="M177.059 80.09L161.642 77.79L162.413 82.0361L176.791 82.3801C176.791 82.3801 177.016 81.0211 177.059 80.09Z" fill="#19313A"/>
<path fill-rule="evenodd" clip-rule="evenodd" d="M176.868 81.8781L165.118 80.2891C164.977 79.5261 164.669 78.8036 164.217 78.173L161.645 77.79L162.416 82.0361L176.794 82.3801C176.794 82.3801 176.825 82.178 176.868 81.8781Z" fill="#002030"/>
<path fill-rule="evenodd" clip-rule="evenodd" d="M200.224 85.1501C199.461 85.511 198.74 88.0071 199.392 90.1501C199.856 91.8021 201.361 92.9453 203.077 92.9501C204.831 93.0101 205.785 91.9901 205.74 90.701C205.702 89.5741 204.349 89.553 203.077 88.0011C201.899 86.5721 201.65 84.475 200.224 85.1501Z" fill="#EE9681"/>
<path fill-rule="evenodd" clip-rule="evenodd" d="M202.611 91.8121C200.345 91.3942 199.164 88.7291 199.251 87.1602C199.066 88.1536 199.114 89.1765 199.392 90.1481C199.856 91.8002 201.361 92.9434 203.077 92.9482C204.831 93.0071 205.785 91.9882 205.74 90.6992C205.443 91.5822 204.485 92.1581 202.611 91.8121Z" fill="#EB7C74"/>
<path fill-rule="evenodd" clip-rule="evenodd" d="M204.766 90.6541C204.719 90.6527 204.673 90.6481 204.627 90.6401C204.485 90.6149 204.35 90.5641 204.227 90.4901C203.891 90.2872 203.639 89.9713 203.516 89.5991C203.465 89.4571 203.329 89.0081 203.637 89.0851C203.701 89.1058 203.76 89.1399 203.81 89.1851C203.955 89.3011 204.11 89.4051 204.251 89.5151C204.512 89.7151 204.842 89.8281 205.088 90.0321C205.179 90.1014 205.233 90.2086 205.236 90.3231C205.221 90.4545 205.134 90.5667 205.011 90.6131C204.933 90.6444 204.849 90.6584 204.766 90.6541Z" fill="#F8C6A3"/>
<path fill-rule="evenodd" clip-rule="evenodd" d="M187.603 92.2921C181.367 92.2921 176.312 87.2369 176.312 81.001C176.312 74.7652 181.367 69.71 187.603 69.7101C193.838 69.7101 198.894 74.7652 198.894 81.001C198.888 87.2361 193.835 92.2878 187.601 92.2921H187.603ZM187.603 70.6671C183.423 70.6667 179.654 73.1842 178.054 77.0457C176.455 80.9072 177.339 85.3522 180.294 88.3079C183.249 91.2637 187.694 92.148 191.556 90.5485C195.418 88.9491 197.936 85.1808 197.936 81.001C197.929 75.2958 193.306 70.6732 187.602 70.6671H187.603Z" fill="#19313A"/>
<path fill-rule="evenodd" clip-rule="evenodd" d="M197.129 99.171C194.31 98.783 191.592 97.8587 189.121 96.4479C186.747 95.194 184.931 95.012 184.511 96.848C183.902 99.4969 186.499 106.248 195.211 107.557C200.787 108.395 204.837 106.769 207.092 104.94C208.235 104.052 209.091 102.846 209.553 101.474C210.053 99.874 209.425 97.9609 205.496 98.72C202.747 99.2976 199.925 99.4497 197.129 99.171Z" fill="#C9434D"/>
<path fill-rule="evenodd" clip-rule="evenodd" d="M195.929 99.006C193.547 98.4901 191.253 97.6284 189.121 96.448C186.747 95.194 184.931 95.012 184.511 96.848C184.018 98.994 185.631 103.832 190.897 106.288C193.917 105.203 195.933 102.34 195.935 99.13C195.935 99.0859 195.929 99.047 195.929 99.006Z" fill="#7C1423"/>
<path fill-rule="evenodd" clip-rule="evenodd" d="M204.062 98.97C201.77 99.3325 199.44 99.3997 197.131 99.17C194.561 98.8339 192.076 98.0278 189.798 96.792H189.798C189.849 97.7583 190.089 98.7052 190.505 99.579C191.169 100.56 194.348 101.779 196.141 102.034C199.641 102.534 202.392 101.641 202.696 101.303C203.213 100.563 203.67 99.7828 204.062 98.97Z" fill="white"/>
<path opacity="0.2" fill-rule="evenodd" clip-rule="evenodd" d="M194.869 99.491C197.797 100.186 200.845 100.196 203.778 99.522C203.945 99.204 204.062 98.97 204.062 98.97C201.77 99.3325 199.44 99.3997 197.131 99.17C194.561 98.8339 192.076 98.0278 189.798 96.792H189.798C189.849 97.7583 190.089 98.7052 190.505 99.579C190.963 100.256 192.62 101.045 194.191 101.554C192.927 101.109 191.897 100.171 191.335 98.954C191.181 98.227 192.063 98.769 194.869 99.491Z" fill="#BAC4CA"/>
<path fill-rule="evenodd" clip-rule="evenodd" d="M200.757 107.585C200.004 105.956 195.54 101.785 186.557 102.923C188.745 105.518 191.846 107.174 195.219 107.552C197.053 107.842 198.92 107.853 200.757 107.585Z" fill="#EC6469"/>
<path fill-rule="evenodd" clip-rule="evenodd" d="M199.489 107.729C199.481 107.729 194.437 107.418 192.02 105.809C189.62 104.209 190.186 102.768 192.282 102.923C190.381 102.667 188.454 102.667 186.553 102.923C188.742 105.518 191.842 107.174 195.216 107.552C196.629 107.771 198.062 107.83 199.489 107.729Z" fill="#DB545B"/>
<path opacity="0.2" fill-rule="evenodd" clip-rule="evenodd" d="M196.652 104.652C195.334 103.914 193.861 103.493 192.352 103.425C190.267 103.636 194.443 105.311 196.259 105.971C198.587 106.818 198.859 105.797 196.652 104.652Z" fill="white"/>
<path opacity="0.2" fill-rule="evenodd" clip-rule="evenodd" d="M199.37 106.452C199.017 106.214 198.546 106.225 198.546 106.513C198.546 106.727 198.818 107.083 199.37 107.254C199.922 107.425 199.939 106.834 199.37 106.452Z" fill="white"/>
<path fill-rule="evenodd" clip-rule="evenodd" d="M214.796 86.2841C216.349 84.5841 216.235 78.8131 214.043 77.1101C211.385 75.0745 207.592 75.5133 205.469 78.1019C203.346 80.6904 203.659 84.496 206.175 86.7037C208.692 88.9115 212.506 88.7258 214.796 86.2841Z" fill="white"/>
<path opacity="0.2" fill-rule="evenodd" clip-rule="evenodd" d="M214.796 86.284C215.3 85.6215 215.614 84.8345 215.706 84.007C214.406 86.528 211.306 87.963 208.595 86.16C205.238 83.925 205.67 78.748 207.024 76.76C204.977 78.0277 203.849 80.366 204.131 82.7572C204.413 85.1484 206.054 87.1601 208.339 87.9168C210.625 88.6736 213.142 88.0385 214.796 86.288V86.284Z" fill="#BAC4CA"/>
<path fill-rule="evenodd" clip-rule="evenodd" d="M204.206 83.3311C204.206 83.3311 204.02 78.6791 207.76 77.1461C209.77 76.2541 212.079 76.3371 214.019 77.371C214.503 77.6522 214.889 78.0743 215.125 78.5811C215.074 77.7095 214.646 76.9033 213.953 76.3721C212.648 75.394 210.73 74.8361 207.977 75.7811C202.454 77.684 204.206 83.3311 204.206 83.3311Z" fill="#19313A"/>
<path fill-rule="evenodd" clip-rule="evenodd" d="M214.175 78.2451C213.004 77.8967 211.737 78.1655 210.809 78.959C208.965 80.7266 208.542 83.5139 209.778 85.749C210.594 86.9802 212.07 87.6004 213.521 87.322C214.651 86.8994 215.483 85.9225 215.721 84.739C216.267 82.9856 216.165 81.0941 215.432 79.41C215.196 78.8618 214.739 78.4386 214.175 78.2451Z" fill="#19313A"/>
<path fill-rule="evenodd" clip-rule="evenodd" d="M215.721 84.7401C215.856 84.2859 215.949 83.8203 215.999 83.3491C215.281 85.4473 213.342 86.884 211.126 86.9591C211.856 87.3577 212.703 87.4866 213.519 87.3231C214.651 86.9011 215.483 85.9241 215.721 84.7401Z" fill="#002030"/>
<path fill-rule="evenodd" clip-rule="evenodd" d="M214.789 79.053C214.389 78.6431 213.788 78.5024 213.248 78.6923C212.708 78.8823 212.328 79.3683 212.273 79.938C212.038 81.5751 213.153 83.368 214.508 83.368C215.408 83.368 215.822 82.517 215.697 81.2391C215.671 80.424 215.348 79.6465 214.789 79.053Z" fill="white"/>
<path fill-rule="evenodd" clip-rule="evenodd" d="M161.639 77.7911C159.725 76.6301 155.039 75.8311 151.977 78.8321C148.915 81.8331 149.137 90.084 154.698 92.8651C157.752 94.5421 161.517 94.1995 164.217 91.9991C164.905 86.1681 164.93 79.9401 161.639 77.7911Z" fill="#F8C6A3"/>
<path fill-rule="evenodd" clip-rule="evenodd" d="M155.539 87.5191C155.539 86.4109 156.206 85.4127 157.229 84.9893C158.252 84.5657 159.43 84.8002 160.212 85.5834C160.995 86.3666 161.229 87.5442 160.804 88.5669C160.38 89.5896 159.381 90.2559 158.274 90.2551C156.764 90.254 155.54 89.0295 155.539 87.5191Z" fill="#DD8964"/>
<path fill-rule="evenodd" clip-rule="evenodd" d="M158.275 90.2501C160.858 90.2301 162.84 87.4041 162.421 84.0091C161.927 80.0091 158.667 79.3041 156.656 79.4161C154.551 79.501 152.857 81.1751 152.747 83.2791C153.526 81.5461 155.489 80.6826 157.293 81.2791C160.644 82.1731 159.561 87.1791 158.443 87.5161C157.325 87.8531 158.275 90.2501 158.275 90.2501Z" fill="#DD8964"/>
<path fill-rule="evenodd" clip-rule="evenodd" d="M158.082 77.415C156.123 77.0771 154.116 77.656 152.638 78.986C150.668 80.645 150.238 83.251 150.559 85.648C150.567 85.705 150.708 85.797 150.719 85.72C151.068 83.127 151.604 80.484 153.964 78.92C155.22 78.1275 156.646 77.643 158.124 77.506C158.185 77.494 158.109 77.421 158.082 77.415Z" fill="#FDDEBC"/>
<path fill-rule="evenodd" clip-rule="evenodd" d="M165.175 92.8781C164.809 91.9152 164.401 90.2551 164.401 90.2551C163.537 91.0382 162.532 91.6491 161.439 92.0551C158.462 93.1519 155.146 92.8162 152.449 91.1451C153.088 91.8511 153.85 92.4338 154.699 92.8641C157.173 94.2102 160.149 94.2636 162.67 93.0071C166.36 102.384 172.081 106.3 180.586 109.835C182.804 110.724 185.114 111.364 187.473 111.744C177.205 109.889 168.705 102.698 165.175 92.8781Z" fill="#F2A37C"/>
<path fill-rule="evenodd" clip-rule="evenodd" d="M193.655 108.703C192.062 108.3 190.535 107.671 189.121 106.834C189.121 106.834 190.076 108.734 193.5 109.52C197.322 110.398 199.255 109.173 199.255 109.173C197.376 109.292 195.489 109.134 193.655 108.703Z" fill="#F2A37C"/>
<path fill-rule="evenodd" clip-rule="evenodd" d="M121.574 172.066C121.517 175.817 120.228 185.9 127.966 193.756C135.705 201.612 150.6 198.563 153.587 197.856C155.847 197.432 158.153 197.313 160.444 197.504C162.038 197.472 166.189 196.449 166.893 193.284C166.893 193.284 162.437 195.628 159.154 190.469C155.558 184.394 155.66 176.819 159.418 170.843C162.903 165.493 170.363 164.334 172.402 164.089C172.402 164.089 171.896 161.661 168.565 161.24C166.748 161.009 162.065 163.186 155.64 165.052C146.028 167.848 133.571 172.284 121.574 172.066Z" fill="#4477BB"/>
<path fill-rule="evenodd" clip-rule="evenodd" d="M160.995 163.652C157.543 165.138 153.522 170.945 152.603 176.252C153.894 172.623 155.972 169.324 158.687 166.591C160.615 164.645 164.128 162.999 164.515 162.672C164.926 162.328 163.306 162.657 160.995 163.652Z" fill="#71ABDE"/>
<path fill-rule="evenodd" clip-rule="evenodd" d="M153.589 197.86C155.848 197.436 158.154 197.317 160.446 197.508C162.04 197.476 166.191 196.453 166.895 193.288C164.754 194.28 162.223 193.837 160.548 192.177L158.865 192.955C158.865 192.955 157.678 195.4 154.972 192.371C151.266 188.221 151.985 179.233 151.985 179.233C150.134 189.926 154.752 194.199 154.168 194.508C153.585 194.817 143.35 197.447 136.258 193.039C129.167 188.631 130.804 175.46 134.668 173.739C138.589 171.996 143.069 170.577 149.835 166.795C141.279 169.375 131.278 172.242 121.575 172.066C121.518 175.817 120.229 185.9 127.967 193.756C135.706 201.612 150.601 198.563 153.589 197.86Z" fill="#3E65AE"/>
<path fill-rule="evenodd" clip-rule="evenodd" d="M161.722 166.316C164.637 165.233 167.686 164.552 170.785 164.291C169.614 162.905 165.953 163.448 161.722 166.316Z" fill="#295296"/>
<path fill-rule="evenodd" clip-rule="evenodd" d="M172.403 164.093C175.309 163.654 186.45 163.201 192.303 166.549C198.436 170.06 199.211 174.649 198.733 179.665C198.255 184.681 166.898 193.288 166.898 193.288C166.898 193.288 165.889 195.405 162.198 194.655C158.507 193.905 155.848 190.49 155.028 183.525C154.208 176.56 157.486 169.186 161.72 166.318C164.431 164.653 167.621 163.94 170.783 164.293L172.403 164.093Z" fill="#F8C6A3"/>
<path fill-rule="evenodd" clip-rule="evenodd" d="M176.297 178.312C176.297 178.312 172.236 179.231 166.169 184.402C161.198 188.639 158.513 189.424 156.737 184.649C154.961 179.874 156.574 172.378 159.526 168.302C156.059 172.574 154.439 178.053 155.026 183.524C155.846 190.489 158.509 193.903 162.196 194.654C165.883 195.405 166.896 193.287 166.896 193.287C166.896 193.287 170.749 182.02 176.297 178.312Z" fill="#F2A37C"/>
<path fill-rule="evenodd" clip-rule="evenodd" d="M166.893 193.288C165.376 193.9 163.802 194.358 162.193 194.655C165.884 195.405 166.893 193.288 166.893 193.288Z" fill="#295296"/>
<path fill-rule="evenodd" clip-rule="evenodd" d="M198.729 179.662C198.271 186.089 191.491 210.028 190.009 216.205C188.717 221.59 187.909 224.849 187.909 224.849C179.657 231.381 171.467 234.8 163.342 234.933C163.342 234.933 163.742 221.568 163.742 214.048C163.742 206.528 164.006 199.999 166.579 192.48C167.36 190.196 171.114 181.533 176.301 178.309C183.212 174.016 190.028 178.087 198.729 179.662Z" fill="#F8C6A3"/>
<path fill-rule="evenodd" clip-rule="evenodd" d="M176.587 214.504C170.598 215.309 169.046 214.504 167.775 208.073C166.504 201.642 168.056 189.017 169.935 185.505C168.599 187.721 167.475 190.058 166.576 192.484C164.004 200.003 163.739 206.533 163.739 214.052C163.739 218.11 163.624 223.867 163.518 228.311L169.118 227.533L187.624 222.851C187.624 222.851 188.062 222.475 188.638 221.901C188.989 220.46 189.456 218.534 190.013 216.209C190.051 216.049 190.096 215.866 190.141 215.678C187.378 214.214 182.032 213.772 176.587 214.504Z" fill="#F2A37C"/>
<path fill-rule="evenodd" clip-rule="evenodd" d="M193.029 182.553C191.417 182.063 189.962 181.155 188.814 179.921C187.614 178.535 187.1 176.706 186.435 177.074C185.106 177.811 185.77 183.134 188.505 184.926C190.206 186.218 192.484 186.458 194.416 185.548C195.377 185.062 196.558 183.513 193.029 182.553Z" fill="#F2A37C"/>
<path opacity="0.3" fill-rule="evenodd" clip-rule="evenodd" d="M198.728 179.665C199.206 174.646 198.428 170.059 192.298 166.549C189.02 164.673 184.081 163.991 179.861 163.831C184.509 164.231 194.568 167.213 196.728 173.796C197.277 175.465 197.228 178.235 196.797 182.453C195.787 192.382 192.63 206.153 192.627 206.164C195.139 196.667 198.414 184.064 198.728 179.665Z" fill="white"/>
<path fill-rule="evenodd" clip-rule="evenodd" d="M187.914 224.851C188.341 223.067 188.996 221.345 189.862 219.728C190.381 219.037 190.381 217.828 187.183 217.136C183.985 216.444 175.425 216.876 169.118 218.951C162.811 221.026 161.6 223.273 161.946 224.223C162.292 225.173 163.799 230.87 163.346 234.936C171.449 234.833 179.641 231.361 187.914 224.851Z" fill="#EFF8FC"/>
<path fill-rule="evenodd" clip-rule="evenodd" d="M189.297 220.801V220.794C189.297 220.794 182.96 219.358 174.042 221.63C164.881 223.963 162.59 226.662 162.59 226.662C162.79 227.571 163 228.648 163.158 229.79C164.281 228.899 167.294 226.99 174.042 225.268C178.614 224.053 183.374 223.702 188.075 224.233C188.409 223.064 188.817 221.918 189.297 220.801V220.801Z" fill="#4477BB"/>
<g style="mix-blend-mode:multiply" opacity="0.2">
<path fill-rule="evenodd" clip-rule="evenodd" d="M174.359 232.768C173.728 232.519 173.024 232.532 172.402 232.803C168.508 234.095 167.64 231.161 167.621 229.177C167.656 227.088 167.364 225.005 166.755 223.006C166.438 222.304 166.423 221.502 166.714 220.789C167.005 220.075 167.576 219.512 168.294 219.232C162.699 221.225 161.61 223.315 161.941 224.223C162.287 225.174 163.794 230.87 163.341 234.936C167.112 234.861 170.841 234.127 174.359 232.768Z" fill="#242357"/>
</g>
<path fill-rule="evenodd" clip-rule="evenodd" d="M170.668 231.723C168.868 232.997 164.729 233.123 163.261 230.6C163.261 230.6 162.602 230.994 161.889 233.054C161.176 235.114 160.322 239.966 161.889 242.582C164.896 241.048 168.086 239.903 171.382 239.174C176.613 238.065 183.826 234.181 186.282 232.517C188.738 230.853 199.043 224.907 206.73 228.633C206.73 228.633 204.115 224.512 197.062 224.591C190.009 224.67 187.911 224.853 187.911 224.853C187.911 224.853 178.585 225.218 174.235 227.207C171.461 228.473 172.57 230.375 170.668 231.723Z" fill="#4477BB"/>
<g style="mix-blend-mode:multiply" opacity="0.2">
<path fill-rule="evenodd" clip-rule="evenodd" d="M186.281 232.515C188.131 231.304 190.093 230.272 192.139 229.435C191.667 227.298 190.945 225.184 189.9 224.748C189.543 224.761 189.239 224.775 188.987 224.787H188.976C186.017 226.238 185.826 230.515 185.826 230.515C184.166 230.777 178.826 234.076 176.873 234.932C173.046 236.607 170.897 236.376 169.995 235.724C168.726 234.808 168.808 232.464 168.808 232.464C166.836 232.864 164.333 232.443 163.258 230.597C163.258 230.597 162.599 230.991 161.886 233.051C161.173 235.111 160.319 239.963 161.886 242.579C164.893 241.045 168.083 239.9 171.379 239.171C176.612 238.063 183.824 234.179 186.281 232.515Z" fill="#242357"/>
</g>
<path fill-rule="evenodd" clip-rule="evenodd" d="M206.72 228.622C199.442 225.107 189.827 230.24 186.743 232.213C186.887 232.113 185.651 227.923 188.974 224.791C192.297 221.659 204.82 221.899 206.72 228.622Z" fill="#EFF8FC"/>
<path fill-rule="evenodd" clip-rule="evenodd" d="M206.72 228.619C203.621 222.95 194.808 225.119 192.482 226.032C190.157 226.945 187.119 227.632 187.515 226.693C186.724 228.417 186.455 230.335 186.743 232.21C189.829 230.24 199.444 225.107 206.72 228.619Z" fill="#A9CBD3"/>
<path fill-rule="evenodd" clip-rule="evenodd" d="M206.723 228.623C205.47 227.212 203.728 226.331 201.85 226.157C197.184 225.692 192.503 226.887 188.633 229.534C184.744 232.076 180.633 234.259 176.349 236.055C172.332 237.801 163.949 238.442 161.405 241.627C161.405 241.627 160.725 242.75 160.919 245.754C160.869 248.318 162.514 250.609 164.96 251.381C167.734 252.49 175.819 253.044 185.884 249.717C195.949 246.39 202.584 245.906 206.728 239.968C210.331 234.803 208.06 230.175 206.723 228.623Z" fill="#DEF1F8"/>
<mask id="mask0" style="mask-type:alpha" maskUnits="userSpaceOnUse" x="160" y="226" width="49" height="27">
<path fill-rule="evenodd" clip-rule="evenodd" d="M206.723 228.623C205.47 227.212 203.728 226.331 201.85 226.157C197.184 225.692 192.503 226.887 188.633 229.534C184.744 232.076 180.633 234.259 176.349 236.055C172.332 237.801 163.949 238.442 161.405 241.627C161.405 241.627 160.725 242.75 160.919 245.754C160.869 248.318 162.514 250.609 164.96 251.381C167.734 252.49 175.819 253.044 185.884 249.717C195.949 246.39 202.584 245.906 206.728 239.968C210.331 234.803 208.06 230.175 206.723 228.623Z" fill="white"/>
</mask>
<g mask="url(#mask0)">
<path d="M209.631 232.214C207.91 228.832 202.431 226.036 194.812 228.469C187.035 230.952 185.676 234.282 177.393 237.414C169.11 240.546 161.935 239.552 159.765 246.614" stroke="#4477BB"/>
</g>
<path fill-rule="evenodd" clip-rule="evenodd" d="M201.618 229.183C196.219 229.105 190.948 230.826 186.636 234.074C182.864 236.809 178.629 238.842 174.136 240.074C170.227 241.196 168.107 241.063 164.265 242.817C162.231 243.562 160.99 245.623 161.283 247.769C161.86 249.492 163.226 250.836 164.96 251.383C167.734 252.492 175.819 253.046 185.884 249.719C195.949 246.392 202.584 245.908 206.728 239.97C208.345 237.821 208.982 235.091 208.482 232.448C207.667 230.806 206.555 229.299 201.618 229.183Z" fill="#E8914F"/>
<path fill-rule="evenodd" clip-rule="evenodd" d="M171.308 250.801C169.341 250.898 167.372 250.642 165.496 250.044C164.198 249.661 163.156 248.69 162.684 247.422C162.576 245.955 163.47 244.6 164.862 244.122C166.712 243.291 168.661 242.701 170.661 242.365C171.776 242.139 173.038 241.882 174.529 241.454C179.187 240.181 183.576 238.074 187.482 235.235C191.403 232.279 196.171 230.66 201.082 230.616C201.245 230.616 201.411 230.616 201.575 230.622C205.775 230.722 206.561 231.852 207.104 232.911C207.455 235.115 206.892 237.368 205.544 239.147C202.653 243.292 198.388 244.52 191.932 246.38C189.988 246.939 187.784 247.574 185.432 248.354C180.882 249.914 176.114 250.741 171.306 250.805L171.308 250.801Z" fill="#D1783B"/>
<mask id="mask1" style="mask-type:alpha" maskUnits="userSpaceOnUse" x="162" y="230" width="46" height="21">
<path fill-rule="evenodd" clip-rule="evenodd" d="M171.308 250.801C169.341 250.898 167.372 250.642 165.496 250.044C164.198 249.661 163.156 248.69 162.684 247.422C162.576 245.955 163.47 244.6 164.862 244.122C166.712 243.291 168.661 242.701 170.661 242.365C171.776 242.139 173.038 241.882 174.529 241.454C179.187 240.181 183.576 238.074 187.482 235.235C191.403 232.279 196.171 230.66 201.082 230.616C201.245 230.616 201.411 230.616 201.575 230.622C205.775 230.722 206.561 231.852 207.104 232.911C207.455 235.115 206.892 237.368 205.544 239.147C202.653 243.292 198.388 244.52 191.932 246.38C189.988 246.939 187.784 247.574 185.432 248.354C180.882 249.914 176.114 250.741 171.306 250.805L171.308 250.801Z" fill="white"/>
</mask>
<g mask="url(#mask1)">
<path fill-rule="evenodd" clip-rule="evenodd" d="M203.86 242.809L205.438 230.842L206.388 230.967L204.81 242.934L203.86 242.809Z" fill="#C66D32"/>
<path fill-rule="evenodd" clip-rule="evenodd" d="M199.793 245.167L201.79 230.021L202.739 230.146L200.743 245.292L199.793 245.167Z" fill="#C66D32"/>
<path fill-rule="evenodd" clip-rule="evenodd" d="M195.873 246.53L197.908 230.869L198.858 230.992L196.823 246.653L195.873 246.53Z" fill="#C66D32"/>
<path fill-rule="evenodd" clip-rule="evenodd" d="M191.933 247.712L194.158 231.365L195.106 231.494L192.881 247.841L191.933 247.712Z" fill="#C66D32"/>
<path fill-rule="evenodd" clip-rule="evenodd" d="M188.029 248.963L190.01 233.49L190.961 233.611L188.98 249.085L188.029 248.963Z" fill="#C66D32"/>
<path fill-rule="evenodd" clip-rule="evenodd" d="M184.184 249.518L185.978 235.917L186.928 236.042L185.133 249.643L184.184 249.518Z" fill="#C66D32"/>
<path fill-rule="evenodd" clip-rule="evenodd" d="M180.3 250.602L181.877 238.635L182.827 238.761L181.25 250.727L180.3 250.602Z" fill="#C66D32"/>
<path fill-rule="evenodd" clip-rule="evenodd" d="M176.35 251.732L177.927 239.764L178.877 239.89L177.299 251.857L176.35 251.732Z" fill="#C66D32"/>
<path fill-rule="evenodd" clip-rule="evenodd" d="M172.61 251.848L174.011 241.226L174.96 241.351L173.56 251.973L172.61 251.848Z" fill="#C66D32"/>
<path fill-rule="evenodd" clip-rule="evenodd" d="M168.857 251.66L170.104 242.204L171.054 242.329L169.807 251.785L168.857 251.66Z" fill="#C66D32"/>
<path fill-rule="evenodd" clip-rule="evenodd" d="M165.194 250.724L166.197 243.125L167.147 243.25L166.144 250.849L165.194 250.724Z" fill="#C66D32"/>
<path fill-rule="evenodd" clip-rule="evenodd" d="M162.974 245.473L163.347 244.592L178.585 251.048L178.211 251.93L162.974 245.473Z" fill="#C66D32"/>
<path fill-rule="evenodd" clip-rule="evenodd" d="M168.483 243.114L168.853 242.231L185.747 249.296L185.378 250.179L168.483 243.114Z" fill="#C66D32"/>
<path fill-rule="evenodd" clip-rule="evenodd" d="M176.064 241.183L176.446 240.305L192.6 247.337L192.218 248.215L176.064 241.183Z" fill="#C66D32"/>
<path fill-rule="evenodd" clip-rule="evenodd" d="M181.563 238.813L181.938 237.932L199.017 245.191L198.643 246.072L181.563 238.813Z" fill="#C66D32"/>
<path fill-rule="evenodd" clip-rule="evenodd" d="M186.562 235.847L186.946 234.97L203.994 242.434L203.61 243.311L186.562 235.847Z" fill="#C66D32"/>
<path fill-rule="evenodd" clip-rule="evenodd" d="M191.096 233.245L191.468 232.362L207.571 239.161L207.198 240.044L191.096 233.245Z" fill="#C66D32"/>
<path fill-rule="evenodd" clip-rule="evenodd" d="M197.491 231.051L197.864 230.169L208.808 234.791L208.435 235.673L197.491 231.051Z" fill="#C66D32"/>
</g>
<path fill-rule="evenodd" clip-rule="evenodd" d="M207.112 232.907C207.067 232.82 207.019 232.732 206.969 232.645C206.942 234.421 206.359 236.144 205.303 237.573C202.413 241.718 198.148 242.947 191.691 244.806C189.747 245.366 187.543 246 185.191 246.78C180.642 248.34 175.874 249.168 171.065 249.231C169.098 249.329 167.13 249.072 165.253 248.474C164.201 248.136 163.305 247.43 162.73 246.486C162.662 246.794 162.649 247.111 162.691 247.423C163.164 248.691 164.206 249.662 165.503 250.045C167.38 250.643 169.348 250.899 171.315 250.802C176.124 250.738 180.892 249.911 185.441 248.351C187.798 247.571 190.001 246.937 191.941 246.377C198.397 244.517 202.662 243.288 205.553 239.144C206.901 237.364 207.464 235.112 207.112 232.907Z" fill="#C66D32"/>
<path d="M205.478 230.612L203.478 242.58" stroke="#E8914F"/>
<path d="M201.411 229.792L199.411 244.939" stroke="#E8914F"/>
<path d="M197.528 230.64L195.479 246.299" stroke="#E8914F"/>
<path d="M193.767 231.137L191.548 247.485" stroke="#E8914F"/>
<path d="M189.645 233.261L187.645 248.733" stroke="#E8914F"/>
<path d="M185.802 235.689L183.802 249.291" stroke="#E8914F"/>
<path d="M181.917 238.406L179.917 250.374" stroke="#E8914F"/>
<path d="M177.967 239.535L175.967 251.503" stroke="#E8914F"/>
<path d="M174.227 240.997L172.227 251.62" stroke="#E8914F"/>
<path d="M170.474 241.975L168.474 251.432" stroke="#E8914F"/>
<path d="M166.811 242.895L164.811 250.495" stroke="#E8914F"/>
<path d="M162.298 244.741L177.536 251.198" stroke="#E8914F"/>
<path d="M167.806 242.382L184.694 249.442" stroke="#E8914F"/>
<path d="M175.393 240.453L191.548 247.485" stroke="#E8914F"/>
<path d="M180.889 238.081L197.973 245.347" stroke="#E8914F"/>
<path d="M185.894 235.117L202.942 242.58" stroke="#E8914F"/>
<path d="M190.42 232.512L206.523 239.311" stroke="#E8914F"/>
<path d="M196.815 230.318L207.764 234.935" stroke="#E8914F"/>
<circle cx="327.183" cy="57.4383" r="25.1691" fill="#7A60A6"/>
<path fill-rule="evenodd" clip-rule="evenodd" d="M351.674 51.6599C350.284 45.7481 346.794 40.5427 341.852 37.0129C342.028 37.6029 345.428 49.536 335.752 61.591C326.052 73.6789 308.377 73.1999 307.59 73.172C314.944 82.3364 327.666 85.1845 338.226 80.0309C348.786 74.8772 354.369 63.0965 351.67 51.6599H351.674Z" fill="#6D5298"/>
<path fill-rule="evenodd" clip-rule="evenodd" d="M349.795 51.6809C352.127 61.5798 347.79 71.8501 339.07 77.0827C330.35 82.3154 319.247 81.3095 311.609 74.5949C320.868 79.2774 332.063 77.7002 339.667 70.6418C347.271 63.5835 349.677 52.537 345.695 42.9559C347.656 45.5462 349.053 48.5183 349.795 51.6809H349.795Z" fill="#5F4589"/>
<path opacity="0.25" fill-rule="evenodd" clip-rule="evenodd" d="M305.448 55.0389C304.449 50.7919 307.081 46.5388 311.328 45.5392C315.575 44.5396 319.828 47.1721 320.828 51.4191C321.828 55.666 319.195 59.9193 314.948 60.9189C312.909 61.399 310.762 61.0492 308.98 59.9465C307.199 58.8438 305.928 57.0784 305.448 55.0389Z" fill="#F298BB"/>
<path opacity="0.25" fill-rule="evenodd" clip-rule="evenodd" d="M307.233 52.343C306.811 50.55 307.51 48.6793 309.005 47.6031C310.5 46.5269 312.496 46.4573 314.062 47.4266C315.629 48.396 316.457 50.2134 316.16 52.0314C315.864 53.8494 314.502 55.31 312.709 55.7319C310.261 56.3075 307.81 54.7905 307.233 52.343Z" fill="#F298BB"/>
<path opacity="0.25" fill-rule="evenodd" clip-rule="evenodd" d="M324.943 45.297C323.944 41.05 326.576 36.7968 330.823 35.7972C335.07 34.7976 339.323 37.4301 340.323 41.6771C341.323 45.924 338.69 50.1773 334.443 51.177C332.404 51.657 330.257 51.3072 328.476 50.2045C326.694 49.1018 325.423 47.3365 324.943 45.297Z" fill="#F298BB"/>
<path opacity="0.25" fill-rule="evenodd" clip-rule="evenodd" d="M327.261 42.154C326.867 40.4795 327.52 38.7324 328.916 37.7274C330.312 36.7224 332.176 36.6573 333.639 37.5626C335.102 38.4679 335.875 40.1652 335.598 41.8631C335.322 43.5609 334.049 44.9249 332.375 45.3189C330.089 45.857 327.799 44.44 327.261 42.154Z" fill="#F298BB"/>
<path opacity="0.25" fill-rule="evenodd" clip-rule="evenodd" d="M315.223 40.619C314.86 39.0831 315.458 37.4797 316.739 36.5572C318.019 35.6347 319.73 35.5749 321.071 36.4056C322.413 37.2364 323.122 38.794 322.867 40.3515C322.612 41.909 321.444 43.1594 319.907 43.519C318.901 43.7557 317.843 43.5831 316.964 43.0392C316.086 42.4954 315.459 41.6248 315.223 40.619Z" fill="#F298BB"/>
<path opacity="0.25" fill-rule="evenodd" clip-rule="evenodd" d="M316.077 39.652C315.881 38.8249 316.203 37.9613 316.893 37.4643C317.582 36.9674 318.504 36.9351 319.226 37.3826C319.949 37.83 320.33 38.669 320.193 39.5078C320.055 40.3466 319.426 41.0197 318.598 41.213C317.471 41.4761 316.344 40.778 316.077 39.652Z" fill="#F298BB"/>
<path opacity="0.15" fill-rule="evenodd" clip-rule="evenodd" d="M335.508 37.019C332.471 35.407 321.022 33.202 312.478 42.019C305.516 49.2939 304.015 60.218 308.757 69.101C308.033 66.025 307.787 55.301 314.509 47.16C321.23 39.019 330.987 37.461 335.508 37.019Z" fill="#D6B6D8"/>
<path fill-rule="evenodd" clip-rule="evenodd" d="M335.507 37.019C335.507 37.019 321.602 32.796 312.6 43.279C303.598 53.762 307.738 67.364 308.757 69.0959C308.757 69.0959 300.28 54.74 311.373 42.205C321.729 30.503 335.507 37.019 335.507 37.019Z" fill="#D7CEE7"/>
<path fill-rule="evenodd" clip-rule="evenodd" d="M370.605 82.229C369.235 85.116 358.021 82.859 342.826 77.137C336.55 74.772 329.59 71.813 322.365 68.385C314.882 64.833 307.965 61.18 302.024 57.699C288.35 49.693 279.787 42.606 281.139 39.759C282.423 37.059 292.321 38.865 306.039 43.795C305.568 44.5274 305.134 45.2831 304.739 46.059C299.174 44.454 295.486 44.083 294.898 45.323C294.28 46.623 297.198 49.451 302.416 52.979C309.317 57.474 316.531 61.4699 324.002 64.936C331.194 68.4172 338.614 71.406 346.211 73.882C352.632 75.877 356.959 76.438 357.6 75.088C358.21 73.8 355.355 71.012 350.225 67.529C350.569 66.7448 350.874 65.9438 351.138 65.129C363.986 72.79 371.908 79.484 370.605 82.229Z" fill="#D5E9F9"/>
<path fill-rule="evenodd" clip-rule="evenodd" d="M370.03 83.0349C368.659 85.9219 357.445 83.6649 342.25 77.9429C335.974 75.5779 329.015 72.6189 321.788 69.1909C314.305 65.6389 307.388 61.9859 301.448 58.5049C287.772 50.4989 279.211 43.4119 280.562 40.5649C281.846 37.8649 291.803 39.7049 305.519 44.6339C305.075 45.3682 304.676 46.1286 304.325 46.9109C298.76 45.3049 294.91 44.8879 294.325 46.1279C293.708 47.4279 296.625 50.2559 301.844 53.7839C308.745 58.2791 315.958 62.2749 323.43 65.741C330.622 69.2223 338.042 72.2111 345.639 74.6868C352.06 76.6819 356.387 77.2429 357.029 75.8929C357.639 74.6049 354.936 71.9079 349.805 68.4249C350.149 67.6409 350.548 66.8979 350.812 66.0829C363.656 73.7429 371.333 80.2909 370.03 83.0349Z" fill="#F49639"/>
<path fill-rule="evenodd" clip-rule="evenodd" d="M370.605 82.229C369.235 85.116 358.021 82.859 342.826 77.137C336.55 74.772 329.59 71.813 322.365 68.385C314.882 64.833 307.965 61.18 302.024 57.699C288.35 49.693 279.787 42.606 281.139 39.759C282.423 37.059 292.321 38.865 306.039 43.795C305.568 44.5274 305.134 45.2831 304.739 46.059C299.174 44.454 295.486 44.083 294.898 45.323C294.28 46.623 297.198 49.451 302.416 52.979C309.317 57.474 316.531 61.4699 324.002 64.936C331.194 68.4172 338.614 71.406 346.211 73.882C352.632 75.877 356.959 76.438 357.6 75.088C358.21 73.8 355.355 71.012 350.225 67.529C350.569 66.7448 350.874 65.9438 351.138 65.129C363.986 72.79 371.908 79.484 370.605 82.229Z" fill="#FFE568"/>
<path fill-rule="evenodd" clip-rule="evenodd" d="M364.685 75.0359C367.241 77.5179 371.392 80.4359 369.324 82.1769C367.256 83.9179 351.024 80.7769 320.147 66.4149C320.147 66.4149 351.498 78.5479 359.604 79.9739C367.644 81.3879 368.773 80.3009 364.685 75.0359Z" fill="#FCC231"/>
<path fill-rule="evenodd" clip-rule="evenodd" d="M295.934 41.1589C292.517 40.4679 284.094 38.4029 282.479 39.9729C280.864 41.5429 290.497 49.7539 293.974 51.7129C293.974 51.7129 285.332 44.7369 284.958 41.5199C284.678 39.1179 295.934 41.1589 295.934 41.1589Z" fill="#FFEDB2"/>
<path fill-rule="evenodd" clip-rule="evenodd" d="M304.667 45.1019C302.501 44.4296 300.295 43.8972 298.061 43.5079C294.877 43.0019 291.076 42.4969 291.467 44.6619C291.858 46.8269 294.758 49.4829 300.632 53.5619C306.506 57.6409 316.424 63.2159 316.424 63.2159C316.424 63.2159 301.907 55.9259 296.347 52.0259C290.787 48.1259 287.431 44.1839 288.207 42.4869C289.175 40.3699 297.986 41.7869 305.073 44.5869L304.667 45.1019Z" fill="#FFDA60"/>
<path fill-rule="evenodd" clip-rule="evenodd" d="M88.3344 87.4511C88.3344 87.4511 62.4905 91.2401 41.5744 83.83C40.9891 83.6197 40.6688 82.99 40.8435 82.3931C41.1894 81.2061 41.7715 79.116 42.3435 76.6381C43.6805 70.8571 88.3344 87.4511 88.3344 87.4511Z" fill="#A9CBD3"/>
<path fill-rule="evenodd" clip-rule="evenodd" d="M42.3431 76.6381C41.9891 78.17 41.6321 79.553 41.3291 80.668C62.2141 88.9511 88.3291 87.451 88.3291 87.451C88.3291 87.451 43.6791 70.8571 42.3431 76.6381Z" fill="#8CB8BF"/>
<path fill-rule="evenodd" clip-rule="evenodd" d="M46.5993 52.29C46.5993 52.29 46.7992 63.54 43.7233 69.326C40.6474 75.1121 77.7963 88.0381 88.3352 87.4521C88.3352 87.4521 73.8703 75.2641 65.9352 65.5151C60.7865 59.4592 54.1099 54.8927 46.5993 52.29Z" fill="#CCE4EA"/>
<path opacity="0.5" fill-rule="evenodd" clip-rule="evenodd" d="M43.7231 69.3261C40.6491 75.1121 77.7961 88.0381 88.335 87.4521C71.5001 82.0521 48.4421 62.9041 48.4421 62.9041C48.3144 59.2986 47.6943 55.7275 46.5991 52.29C46.5991 52.2901 46.7971 63.5401 43.7231 69.3261Z" fill="#A9CBD3"/>
<path fill-rule="evenodd" clip-rule="evenodd" d="M35.2684 55.391C34.1924 55.585 29.1864 56.417 23.8965 56.879C15.9475 57.573 9.08753 56.214 9.97852 58.345C10.7736 60.245 23.1915 72.434 41.0136 79.125C58.8356 85.816 81.1025 88.025 88.3346 87.45C78.0811 83.6639 68.2046 78.9259 58.8346 73.298C44.0864 64.312 38.3555 54.832 35.2684 55.391Z" fill="#F7FCFE"/>
<path fill-rule="evenodd" clip-rule="evenodd" d="M88.3347 87.4511C88.3347 87.4511 78.6107 77.4151 72.9507 66.4951C65.5387 52.1891 63.7797 41.2131 62.9946 40.1651C62.2096 39.1171 58.9086 41.6251 53.6366 45.6651C51.1089 47.6713 48.7545 49.8867 46.5986 52.288C46.5986 52.2881 71.6447 81.6821 88.3347 87.4511Z" fill="#F7FCFE"/>
<path fill-rule="evenodd" clip-rule="evenodd" d="M31.2995 57.635C22.7215 59.78 12.3405 58.021 14.7356 60.963C17.1306 63.905 40.7856 82.182 74.6246 85.201C74.6246 85.201 45.0547 77.846 31.9646 69.879C16.5846 60.519 22.2845 60.633 24.7176 60.079C27.0328 59.6384 29.2577 58.8123 31.2995 57.635Z" fill="white"/>
<path fill-rule="evenodd" clip-rule="evenodd" d="M83.4672 84.2381C83.4672 84.2381 60.4481 66.4521 49.1172 52.7151C49.1172 52.7151 53.8171 46.3891 59.6772 43.259C59.6772 43.259 54.8342 47.6811 53.3593 50.5591C52.6763 51.893 54.0272 54.6971 56.3082 57.635C61.7133 64.6001 83.4672 84.2381 83.4672 84.2381Z" fill="white"/>
<path fill-rule="evenodd" clip-rule="evenodd" d="M299.051 129.152C299.051 129.152 279.796 137.417 262.051 135.984C261.554 135.941 261.176 135.519 261.188 135.02C261.212 134.028 261.231 132.288 261.165 130.25C261.012 125.491 299.051 129.152 299.051 129.152Z" fill="#A9CBD3"/>
<path fill-rule="evenodd" clip-rule="evenodd" d="M261.169 130.249C261.21 131.51 261.218 132.656 261.213 133.582C279.113 135.698 299.051 129.152 299.051 129.152C299.051 129.152 261.012 125.491 261.169 130.249Z" fill="#8CB8BF"/>
<path fill-rule="evenodd" clip-rule="evenodd" d="M259.449 110.496C259.449 110.496 261.922 119.176 260.731 124.296C259.54 129.416 291.003 131.777 299.052 129.151C299.052 129.151 285.326 122.684 277.167 116.761C271.927 113.128 265.809 110.964 259.449 110.496Z" fill="#CCE4EA"/>
<path opacity="0.5" fill-rule="evenodd" clip-rule="evenodd" d="M260.731 124.296C259.541 129.415 291.003 131.777 299.052 129.151C284.889 128.438 263.065 118.344 263.065 118.344C262.223 115.575 261.006 112.935 259.449 110.496C259.449 110.496 261.922 119.175 260.731 124.296Z" fill="#A9CBD3"/>
<path fill-rule="evenodd" clip-rule="evenodd" d="M251.307 115.236C250.513 115.609 246.807 117.285 242.798 118.736C236.779 120.913 231.181 121.273 232.311 122.742C233.319 124.052 245.459 130.942 260.654 132.454C275.849 133.966 293.568 131.091 299.054 129.154C290.325 128.332 281.692 126.694 273.268 124.263C259.978 120.33 253.582 114.166 251.307 115.236Z" fill="#F7FCFE"/>
<path fill-rule="evenodd" clip-rule="evenodd" d="M299.052 129.152C299.052 129.152 289.445 123.376 282.805 116.074C274.11 106.512 270.485 98.3649 269.659 97.7139C268.833 97.0629 266.793 99.689 263.54 103.914C261.994 105.99 260.625 108.194 259.449 110.5C259.449 110.5 284.925 128.119 299.052 129.152Z" fill="#F7FCFE"/>
<path fill-rule="evenodd" clip-rule="evenodd" d="M248.69 117.794C242.483 121.224 234.072 122.001 236.535 123.788C238.998 125.575 261.104 134.867 287.959 130.233C287.959 130.233 263.52 130.628 251.73 127.149C237.876 123.063 242.32 121.977 244.091 121.042C245.795 120.224 247.35 119.127 248.69 117.794Z" fill="white"/>
<path fill-rule="evenodd" clip-rule="evenodd" d="M294.615 127.663C294.615 127.663 273.104 118.621 261.488 110.306C261.488 110.306 263.831 104.432 267.726 100.798C267.726 100.798 264.883 105.224 264.333 107.759C264.078 108.934 265.703 110.83 268.077 112.637C273.703 116.923 294.615 127.663 294.615 127.663Z" fill="white"/>
<path fill-rule="evenodd" clip-rule="evenodd" d="M22.5889 128.389H12.5569C11.7379 121.593 5.97302 116.479 -0.872066 116.476V110.166C-0.87463 102.467 -7.1145 96.2304 -14.8098 96.232L-14.806 96.2319C-22.5016 96.232 -28.74 102.47 -28.74 110.166V114.288C-30.6975 110.305 -35.1434 108.198 -39.4658 109.205C-43.7882 110.213 -46.8448 114.068 -46.8398 118.506L-46.84 128.39H-58.574C-60.8794 128.391 -62.748 130.26 -62.748 132.565H-62.7479C-62.748 134.869 -60.88 136.738 -58.5751 136.739H22.588C24.8934 136.739 26.7625 134.87 26.7631 132.565C26.7636 131.459 26.3242 130.396 25.5415 129.613C24.7589 128.83 23.6972 128.389 22.5899 128.389H22.5889Z" fill="white"/>
<circle cx="211.126" cy="17.193" r="7.327" fill="white" fill-opacity="0.2"/>
<path fill-rule="evenodd" clip-rule="evenodd" d="M211.126 25.78C210.442 25.78 209.887 25.2259 209.887 24.542V9.84201C209.887 9.15814 210.442 8.604 211.126 8.604C211.454 8.604 211.769 8.73441 212.001 8.96658C212.233 9.19876 212.364 9.51364 212.364 9.84201V24.542C212.364 24.8709 212.233 25.1858 212.001 25.4178C211.768 25.6499 211.453 25.7802 211.125 25.78H211.126Z" fill="white" fill-opacity="0.298039"/>
<path fill-rule="evenodd" clip-rule="evenodd" d="M219.712 17.192C219.712 17.8759 219.158 18.4305 218.474 18.431H203.774C203.09 18.4305 202.536 17.8759 202.536 17.192C202.536 16.863 202.667 16.5482 202.899 16.3162C203.131 16.0841 203.446 15.9538 203.775 15.954H218.474C218.802 15.954 219.117 16.0844 219.349 16.3166C219.582 16.5487 219.712 16.8636 219.712 17.192Z" fill="white" fill-opacity="0.298039"/>
<path fill-rule="evenodd" clip-rule="evenodd" d="M216.323 17.192C216.323 17.8763 215.768 18.431 215.084 18.4309H207.167C206.482 18.431 205.928 17.8763 205.928 17.192C205.929 16.5085 206.483 15.955 207.167 15.955H215.084C215.767 15.955 216.322 16.5085 216.323 17.192Z" fill="white"/>
<path fill-rule="evenodd" clip-rule="evenodd" d="M211.126 22.39C210.441 22.39 209.887 21.8353 209.887 21.151V13.23C209.887 12.5457 210.441 11.991 211.126 11.991C211.81 11.9915 212.364 12.5461 212.364 13.23V21.147C212.365 21.4761 212.235 21.7921 212.003 22.0254C211.77 22.2585 211.455 22.3897 211.126 22.39Z" fill="white"/>
<path fill-rule="evenodd" clip-rule="evenodd" d="M255.498 66.831C255.498 65.7404 256.382 64.8561 257.473 64.856C258.563 64.8558 259.448 65.7397 259.448 66.8303C259.448 67.921 258.565 68.8054 257.474 68.806C256.95 68.8062 256.447 68.5983 256.077 68.2278C255.706 67.8574 255.498 67.3549 255.498 66.831Z" fill="#FFEDB2"/>
<path fill-rule="evenodd" clip-rule="evenodd" d="M123.652 8.60699C123.653 7.8075 124.134 7.08752 124.872 6.78207C125.61 6.47665 126.46 6.6459 127.024 7.21097C127.589 7.776 127.758 8.62555 127.452 9.36346C127.146 10.1013 126.426 10.5823 125.627 10.582C124.536 10.5817 123.652 9.69751 123.652 8.60699Z" fill="#FFEDB2"/>
<path fill-rule="evenodd" clip-rule="evenodd" d="M115.396 59.31C115.395 58.5109 115.876 57.79 116.615 57.4838C117.353 57.1775 118.203 57.3463 118.768 57.9113C119.334 58.4763 119.503 59.3262 119.197 60.0648C118.892 60.8033 118.171 61.2849 117.372 61.285C116.848 61.2853 116.345 61.0773 115.974 60.7069C115.604 60.3365 115.396 59.834 115.396 59.31Z" fill="#FFEDB2"/>
<path fill-rule="evenodd" clip-rule="evenodd" d="M234.12 4.45102C234.12 3.6525 234.601 2.93179 235.339 2.6257C236.078 2.31961 236.927 2.48837 237.493 3.05331C238.058 3.61826 238.228 4.46814 237.922 5.2066C237.616 5.9451 236.896 6.42676 236.097 6.42703C235.573 6.42719 235.07 6.21906 234.699 5.84848C234.328 5.47787 234.12 4.97519 234.12 4.45102Z" fill="#FFEDB2"/>
<path fill-rule="evenodd" clip-rule="evenodd" d="M12.5361 21.791C12.5365 20.9911 13.0182 20.2708 13.7567 19.9651C14.4951 19.6595 15.345 19.8289 15.9099 20.3943C16.4749 20.9596 16.6437 21.8096 16.3375 22.5479C16.0314 23.2861 15.3107 23.7673 14.5115 23.767C13.9874 23.7671 13.4849 23.5589 13.1144 23.1883C12.7439 22.8177 12.5359 22.315 12.5361 21.791Z" fill="#FFEDB2"/>
<defs>
<linearGradient id="paint0_linear" x1="114.277" y1="191.563" x2="114.277" y2="268.818" gradientUnits="userSpaceOnUse">
<stop stop-color="#F59D10" stop-opacity="0.501961"/>
<stop offset="0.144" stop-color="#F59D10" stop-opacity="0.470588"/>
<stop offset="0.361" stop-color="#F59D12" stop-opacity="0.384314"/>
<stop offset="0.624" stop-color="#F69E16" stop-opacity="0.247059"/>
<stop offset="0.921" stop-color="#F69F1B" stop-opacity="0.054902"/>
<stop offset="1" stop-color="#F7A01D" stop-opacity="0.01"/>
</linearGradient>
<linearGradient id="paint1_linear" x1="196.365" y1="89.9032" x2="196.365" y2="70.1562" gradientUnits="userSpaceOnUse">
<stop stop-color="#F2A37C"/>
<stop offset="0.09" stop-color="#F2A47D" stop-opacity="0.968627"/>
<stop offset="0.225" stop-color="#F2A780" stop-opacity="0.882353"/>
<stop offset="0.39" stop-color="#F3AC86" stop-opacity="0.741176"/>
<stop offset="0.577" stop-color="#F4B28D" stop-opacity="0.54902"/>
<stop offset="0.783" stop-color="#F6BB97" stop-opacity="0.298039"/>
<stop offset="1" stop-color="#F8C6A3" stop-opacity="0.01"/>
</linearGradient>
<linearGradient id="paint2_linear" x1="215.784" y1="88.2402" x2="215.784" y2="70.1234" gradientUnits="userSpaceOnUse">
<stop stop-color="#F2A37C"/>
<stop offset="0.09" stop-color="#F2A47D" stop-opacity="0.968627"/>
<stop offset="0.225" stop-color="#F2A780" stop-opacity="0.882353"/>
<stop offset="0.39" stop-color="#F3AC86" stop-opacity="0.741176"/>
<stop offset="0.577" stop-color="#F4B28D" stop-opacity="0.54902"/>
<stop offset="0.783" stop-color="#F6BB97" stop-opacity="0.298039"/>
<stop offset="1" stop-color="#F8C6A3" stop-opacity="0.01"/>
</linearGradient>
</defs>
</svg>
